<svg
    xmlns="http://www.w3.org/2000/svg"
    xmlns:xlink="http://www.w3.org/1999/xlink" version="1.1" id="Layer_1" x="0px" y="0px" viewBox="0 0 550 518" style="enable-background:new 0 0 550 518;" xml:space="preserve">
    <style type="text/css">
	.Black{fill:#AFAFAF;}
	.Blue{fill:#4E97FC;}
	.screen_text{ fill:#000000; font-family:'SegoeUI-Bold'; font-size:12px;}
	.sittext_normal{ fill:#000000; font-family:'SegoeUI-Bold'; font-size:9px;}
	.sittext_hot{ fill:#377ab5; font-family:'SegoeUI-Bold'; font-size:9px;}
	.st0{fill:#5E5E5E;}
</style>
    <g>
        <text transform="matrix(0.9923 0 0 1 251 74)" class="screen_text">SCREEN</text>
    </g>
    <g id="seat_82">
        <g id="background_normal_82">
            <path class="Black" d="M508,448.1V444c0-1.1-0.9-2-2-2h-20c-1.1,0-2,0.9-2,2v4.5c-1.2,0.7-2,2-2,3.5v12v2c0,1.1,0.9,2,2,2h24  c1.1,0,2-0.9,2-2v-2v-13C510,449.7,509.2,448.6,508,448.1z M486,445c0-0.6,0.4-1,1-1h18c0.6,0,1,0.4,1,1v3v16h-20v-16V445z"/>
            <g>
                <text transform="matrix(0.9923 0 0 1 490.2783 457.9643)" class="sittext_normal">H1</text>
            </g>
        </g>
        <g id="background_pressed_82">
            <path class="Blue" d="M508,448.1V444c0-1.1-0.9-2-2-2h-20c-1.1,0-2,0.9-2,2v4.5c-1.2,0.7-2,2-2,3.5v12v2c0,1.1,0.9,2,2,2h24  c1.1,0,2-0.9,2-2v-2v-13C510,449.7,509.2,448.6,508,448.1z M486,445c0-0.6,0.4-1,1-1h18c0.6,0,1,0.4,1,1v3v16h-20v-16V445z"/>
            <g>
                <text transform="matrix(0.9923 0 0 1 490.2742 457.9704)" class="sittext_hot">H1</text>
            </g>
        </g>
    </g>
    <g id="seat_81">
        <g id="background_normal_81">
            <path class="Black" d="M468,448.1V444c0-1.1-0.9-2-2-2h-20c-1.1,0-2,0.9-2,2v4.5c-1.2,0.7-2,2-2,3.5v12v2c0,1.1,0.9,2,2,2h24  c1.1,0,2-0.9,2-2v-2v-13C470,449.7,469.2,448.6,468,448.1z M446,445c0-0.6,0.4-1,1-1h18c0.6,0,1,0.4,1,1v3v16h-20v-16V445z"/>
            <g>
                <text transform="matrix(0.9923 0 0 1 450.2783 457.9643)" class="sittext_normal">H2</text>
            </g>
        </g>
        <g id="background_pressed_81">
            <path class="Blue" d="M468,448.1V444c0-1.1-0.9-2-2-2h-20c-1.1,0-2,0.9-2,2v4.5c-1.2,0.7-2,2-2,3.5v12v2c0,1.1,0.9,2,2,2h24  c1.1,0,2-0.9,2-2v-2v-13C470,449.7,469.2,448.6,468,448.1z M446,445c0-0.6,0.4-1,1-1h18c0.6,0,1,0.4,1,1v3v16h-20v-16V445z"/>
            <g>
                <text transform="matrix(0.9923 0 0 1 450.2742 457.9704)" class="sittext_hot">H2</text>
            </g>
        </g>
    </g>
    <g id="seat_80">
        <g id="background_normal_80">
            <path class="Black" d="M428,448.1V444c0-1.1-0.9-2-2-2h-20c-1.1,0-2,0.9-2,2v4.5c-1.2,0.7-2,2-2,3.5v12v2c0,1.1,0.9,2,2,2h24  c1.1,0,2-0.9,2-2v-2v-13C430,449.7,429.2,448.6,428,448.1z M406,445c0-0.6,0.4-1,1-1h18c0.6,0,1,0.4,1,1v3v16h-20v-16V445z"/>
            <g>
                <text transform="matrix(0.9923 0 0 1 410.2783 457.9643)" class="sittext_normal">H3</text>
            </g>
        </g>
        <g id="background_pressed_80">
            <path class="Blue" d="M428,448.1V444c0-1.1-0.9-2-2-2h-20c-1.1,0-2,0.9-2,2v4.5c-1.2,0.7-2,2-2,3.5v12v2c0,1.1,0.9,2,2,2h24  c1.1,0,2-0.9,2-2v-2v-13C430,449.7,429.2,448.6,428,448.1z M406,445c0-0.6,0.4-1,1-1h18c0.6,0,1,0.4,1,1v3v16h-20v-16V445z"/>
            <g>
                <text transform="matrix(0.9923 0 0 1 410.2742 457.9704)" class="sittext_hot">H3</text>
            </g>
        </g>
    </g>
    <g id="seat_79">
        <g id="background_normal_79">
            <path class="Black" d="M388,448.2V444c0-1.1-0.9-2-2-2h-20c-1.1,0-2,0.9-2,2v4.5c-1.2,0.7-2,2-2,3.5v12v2c0,1.1,0.9,2,2,2h24  c1.1,0,2-0.9,2-2v-2v-13C390,449.7,389.2,448.6,388,448.2z M366,445c0-0.6,0.4-1,1-1h18c0.6,0,1,0.4,1,1v3v16h-20v-16V445z"/>
            <g>
                <text transform="matrix(0.9923 0 0 1 370.2783 457.9821)" class="sittext_normal">H4</text>
            </g>
        </g>
        <g id="background_pressed_79">
            <path class="Blue" d="M388,448.2V444c0-1.1-0.9-2-2-2h-20c-1.1,0-2,0.9-2,2v4.5c-1.2,0.7-2,2-2,3.5v12v2c0,1.1,0.9,2,2,2h24  c1.1,0,2-0.9,2-2v-2v-13C390,449.7,389.2,448.6,388,448.2z M366,445c0-0.6,0.4-1,1-1h18c0.6,0,1,0.4,1,1v3v16h-20v-16V445z"/>
            <g>
                <text transform="matrix(0.9923 0 0 1 370.2742 457.9882)" class="sittext_hot">H4</text>
            </g>
        </g>
    </g>
    <g id="seat_78">
        <g id="background_normal_78">
            <path class="Black" d="M348,448.1V444c0-1.1-0.9-2-2-2h-20c-1.1,0-2,0.9-2,2v4.5c-1.2,0.7-2,2-2,3.5v12v2c0,1.1,0.9,2,2,2h24  c1.1,0,2-0.9,2-2v-2v-13C350,449.7,349.2,448.6,348,448.1z M326,445c0-0.6,0.4-1,1-1h18c0.6,0,1,0.4,1,1v3v16h-20v-16V445z"/>
            <g>
                <text transform="matrix(0.9923 0 0 1 330.2783 457.9643)" class="sittext_normal">H5</text>
            </g>
        </g>
        <g id="background_pressed_78">
            <path class="Blue" d="M348,448.1V444c0-1.1-0.9-2-2-2h-20c-1.1,0-2,0.9-2,2v4.5c-1.2,0.7-2,2-2,3.5v12v2c0,1.1,0.9,2,2,2h24  c1.1,0,2-0.9,2-2v-2v-13C350,449.7,349.2,448.6,348,448.1z M326,445c0-0.6,0.4-1,1-1h18c0.6,0,1,0.4,1,1v3v16h-20v-16V445z"/>
            <g>
                <text transform="matrix(0.9923 0 0 1 330.2742 457.9704)" class="sittext_hot">H5</text>
            </g>
        </g>
    </g>
    <g id="seat_77">
        <g id="background_normal_77">
            <path class="Black" d="M308,448.2V444c0-1.1-0.9-2-2-2h-20c-1.1,0-2,0.9-2,2v4.5c-1.2,0.7-2,2-2,3.5v12v2c0,1.1,0.9,2,2,2h24  c1.1,0,2-0.9,2-2v-2v-13C310,449.7,309.2,448.6,308,448.2z M286,445c0-0.6,0.4-1,1-1h18c0.6,0,1,0.4,1,1v3v16h-20v-16V445z"/>
            <g>
                <text transform="matrix(0.9923 0 0 1 290.2783 457.9821)" class="sittext_normal">H6</text>
            </g>
        </g>
        <g id="background_pressed_77">
            <path class="Blue" d="M308,448.2V444c0-1.1-0.9-2-2-2h-20c-1.1,0-2,0.9-2,2v4.5c-1.2,0.7-2,2-2,3.5v12v2c0,1.1,0.9,2,2,2h24  c1.1,0,2-0.9,2-2v-2v-13C310,449.7,309.2,448.6,308,448.2z M286,445c0-0.6,0.4-1,1-1h18c0.6,0,1,0.4,1,1v3v16h-20v-16V445z"/>
            <g>
                <text transform="matrix(0.9923 0 0 1 290.2742 457.9882)" class="sittext_hot">H6</text>
            </g>
        </g>
    </g>
    <g id="seat_76">
        <g id="background_normal_76">
            <path class="Black" d="M268,448.1V444c0-1.1-0.9-2-2-2h-20c-1.1,0-2,0.9-2,2v4.5c-1.2,0.7-2,2-2,3.5v12v2c0,1.1,0.9,2,2,2h24  c1.1,0,2-0.9,2-2v-2v-13C270,449.7,269.2,448.6,268,448.1z M246,445c0-0.6,0.4-1,1-1h18c0.6,0,1,0.4,1,1v3v16h-20v-16V445z"/>
            <g>
                <text transform="matrix(0.9923 0 0 1 250.2783 457.9643)" class="sittext_normal">H7</text>
            </g>
        </g>
        <g id="background_pressed_76">
            <path class="Blue" d="M268,448.1V444c0-1.1-0.9-2-2-2h-20c-1.1,0-2,0.9-2,2v4.5c-1.2,0.7-2,2-2,3.5v12v2c0,1.1,0.9,2,2,2h24  c1.1,0,2-0.9,2-2v-2v-13C270,449.7,269.2,448.6,268,448.1z M246,445c0-0.6,0.4-1,1-1h18c0.6,0,1,0.4,1,1v3v16h-20v-16V445z"/>
            <g>
                <text transform="matrix(0.9923 0 0 1 250.2742 457.9704)" class="sittext_hot">H7</text>
            </g>
        </g>
    </g>
    <g id="seat_75">
        <g id="background_normal_75">
            <path class="Black" d="M228,448.1V444c0-1.1-0.9-2-2-2h-20c-1.1,0-2,0.9-2,2v4.5c-1.2,0.7-2,2-2,3.5v12v2c0,1.1,0.9,2,2,2h24  c1.1,0,2-0.9,2-2v-2v-13C230,449.7,229.2,448.6,228,448.1z M206,445c0-0.6,0.4-1,1-1h18c0.6,0,1,0.4,1,1v3v16h-20v-16V445z"/>
            <g>
                <text transform="matrix(0.9923 0 0 1 210.6979 457.9643)" class="sittext_normal">H8</text>
            </g>
        </g>
        <g id="background_pressed_75">
            <path class="Blue" d="M228,448.2V444c0-1.1-0.9-2-2-2h-20c-1.1,0-2,0.9-2,2v4.5c-1.2,0.7-2,2-2,3.5v12v2c0,1.1,0.9,2,2,2h24  c1.1,0,2-0.9,2-2v-2v-13C230,449.7,229.2,448.6,228,448.2z M206,445c0-0.6,0.4-1,1-1h18c0.6,0,1,0.4,1,1v3v16h-20v-16V445z"/>
            <g>
                <text transform="matrix(0.9923 0 0 1 210.6938 457.9704)" class="sittext_hot">H8</text>
            </g>
        </g>
    </g>
    <g id="seat_74">
        <g id="background_normal_74">
            <path class="Black" d="M188,448.2V444c0-1.1-0.9-2-2-2h-20c-1.1,0-2,0.9-2,2v4.5c-1.2,0.7-2,2-2,3.5v12v2c0,1.1,0.9,2,2,2h24  c1.1,0,2-0.9,2-2v-2v-13C190,449.7,189.2,448.6,188,448.2z M166,445c0-0.6,0.4-1,1-1h18c0.6,0,1,0.4,1,1v3v16h-20v-16V445z"/>
            <g>
                <text transform="matrix(0.9923 0 0 1 170.6979 457.9821)" class="sittext_normal">H9</text>
            </g>
        </g>
        <g id="background_pressed_74">
            <path class="Blue" d="M188,448.2V444c0-1.1-0.9-2-2-2h-20c-1.1,0-2,0.9-2,2v4.5c-1.2,0.7-2,2-2,3.5v12v2c0,1.1,0.9,2,2,2h24  c1.1,0,2-0.9,2-2v-2v-13C190,449.7,189.2,448.6,188,448.2z M166,445c0-0.6,0.4-1,1-1h18c0.6,0,1,0.4,1,1v3v16h-20v-16V445z"/>
            <g>
                <text transform="matrix(0.9923 0 0 1 170.6938 457.9882)" class="sittext_hot">H9</text>
            </g>
        </g>
    </g>
    <g id="seat_73">
        <g id="background_normal_73">
            <path class="Black" d="M148,448.2V444c0-1.1-0.9-2-2-2h-20c-1.1,0-2,0.9-2,2v4.5c-1.2,0.7-2,2-2,3.5v12v2c0,1.1,0.9,2,2,2h24  c1.1,0,2-0.9,2-2v-2v-13C150,449.7,149.2,448.6,148,448.2z M126,445c0-0.6,0.4-1,1-1h18c0.6,0,1,0.4,1,1v3v16h-20v-16V445z"/>
            <g>
                <text transform="matrix(0.9923 0 0 1 127.7339 457.9821)" class="sittext_normal">H10</text>
            </g>
        </g>
        <g id="background_pressed_73">
            <path class="Blue" d="M148,448.2V444c0-1.1-0.9-2-2-2h-20c-1.1,0-2,0.9-2,2v4.5c-1.2,0.7-2,2-2,3.5v12v2c0,1.1,0.9,2,2,2h24  c1.1,0,2-0.9,2-2v-2v-13C150,449.7,149.2,448.6,148,448.2z M126,445c0-0.6,0.4-1,1-1h18c0.6,0,1,0.4,1,1v3v16h-20v-16V445z"/>
            <g>
                <text transform="matrix(0.9923 0 0 1 127.7298 457.9882)" class="sittext_hot">H10</text>
            </g>
        </g>
    </g>
    <g id="seat_72">
        <g id="background_normal_72">
            <g>
                <text transform="matrix(0.9923 0 0 1 87.7309 457.9822)" class="sittext_normal">H11</text>
            </g>
            <path class="Black" d="M108,448.2V444c0-1.1-0.9-2-2-2H86c-1.1,0-2,0.9-2,2v4.5c-1.2,0.7-2,2-2,3.5v12v2c0,1.1,0.9,2,2,2h24  c1.1,0,2-0.9,2-2v-2v-13C110,449.7,109.2,448.6,108,448.2z M86,445c0-0.6,0.4-1,1-1h18c0.6,0,1,0.4,1,1v3v16H86v-16V445z"/>
        </g>
        <g id="background_pressed_72">
            <path class="Blue" d="M108,448.2V444c0-1.1-0.9-2-2-2H86c-1.1,0-2,0.9-2,2v4.5c-1.2,0.7-2,2-2,3.5v12v2c0,1.1,0.9,2,2,2h24  c1.1,0,2-0.9,2-2v-2v-13C110,449.7,109.2,448.6,108,448.2z M86,445c0-0.6,0.4-1,1-1h18c0.6,0,1,0.4,1,1v3v16H86v-16V445z"/>
            <g>
                <text transform="matrix(0.9923 0 0 1 87.7267 457.9883)" class="sittext_hot">H11</text>
            </g>
        </g>
    </g>
    <g id="seat_71">
        <g id="background_normal_71">
            <g>
                <text transform="matrix(0.9923 0 0 1 47.5931 457.9645)" class="sittext_normal">H12</text>
            </g>
            <path class="Black" d="M68,448.1V444c0-1.1-0.9-2-2-2H46c-1.1,0-2,0.9-2,2v4.5c-1.2,0.7-2,2-2,3.5v12v2c0,1.1,0.9,2,2,2h24  c1.1,0,2-0.9,2-2v-2v-13C70,449.7,69.2,448.6,68,448.1z M46,445c0-0.6,0.4-1,1-1h18c0.6,0,1,0.4,1,1v3v16H46v-16V445z"/>
        </g>
        <g id="background_pressed_71">
            <path class="Blue" d="M68,448.2V444c0-1.1-0.9-2-2-2H46c-1.1,0-2,0.9-2,2v4.5c-1.2,0.7-2,2-2,3.5v12v2c0,1.1,0.9,2,2,2h24  c1.1,0,2-0.9,2-2v-2v-13C70,449.7,69.2,448.6,68,448.2z M46,445c0-0.6,0.4-1,1-1h18c0.6,0,1,0.4,1,1v3v16H46v-16V445z"/>
            <g>
                <text transform="matrix(0.9923 0 0 1 47.589 457.9706)" class="sittext_hot">H12</text>
            </g>
        </g>
    </g>
    <g id="seat_70">
        <g id="background_normal_70">
            <path class="Black" d="M508,410.1V406c0-1.1-0.9-2-2-2h-20c-1.1,0-2,0.9-2,2v4.5c-1.2,0.7-2,2-2,3.5v12v2c0,1.1,0.9,2,2,2h24  c1.1,0,2-0.9,2-2v-2v-13C510,411.7,509.2,410.6,508,410.1z M486,407c0-0.6,0.4-1,1-1h18c0.6,0,1,0.4,1,1v3v16h-20v-16V407z"/>
            <g>
                <text transform="matrix(0.9923 0 0 1 490.2783 419.9643)" class="sittext_normal">G1</text>
            </g>
        </g>
        <g id="background_pressed_70">
            <path class="Blue" d="M508,410.2V406c0-1.1-0.9-2-2-2h-20c-1.1,0-2,0.9-2,2v4.5c-1.2,0.7-2,2-2,3.5v12v2c0,1.1,0.9,2,2,2h24  c1.1,0,2-0.9,2-2v-2v-13C510,411.7,509.2,410.6,508,410.2z M486,407c0-0.6,0.4-1,1-1h18c0.6,0,1,0.4,1,1v3v16h-20v-16V407z"/>
            <g>
                <text transform="matrix(0.9923 0 0 1 490.2742 419.9704)" class="sittext_hot">G1</text>
            </g>
        </g>
    </g>
    <g id="seat_69">
        <g id="background_normal_69">
            <path class="Black" d="M468,410.1V406c0-1.1-0.9-2-2-2h-20c-1.1,0-2,0.9-2,2v4.5c-1.2,0.7-2,2-2,3.5v12v2c0,1.1,0.9,2,2,2h24  c1.1,0,2-0.9,2-2v-2v-13C470,411.7,469.2,410.6,468,410.1z M446,407c0-0.6,0.4-1,1-1h18c0.6,0,1,0.4,1,1v3v16h-20v-16V407z"/>
            <g>
                <text transform="matrix(0.9923 0 0 1 450.2783 419.9643)" class="sittext_normal">G2</text>
            </g>
        </g>
        <g id="background_pressed_69">
            <path class="Blue" d="M468,410.2V406c0-1.1-0.9-2-2-2h-20c-1.1,0-2,0.9-2,2v4.5c-1.2,0.7-2,2-2,3.5v12v2c0,1.1,0.9,2,2,2h24  c1.1,0,2-0.9,2-2v-2v-13C470,411.7,469.2,410.6,468,410.2z M446,407c0-0.6,0.4-1,1-1h18c0.6,0,1,0.4,1,1v3v16h-20v-16V407z"/>
            <g>
                <text transform="matrix(0.9923 0 0 1 450.2742 419.9704)" class="sittext_hot">G2</text>
            </g>
        </g>
    </g>
    <g id="seat_68">
        <g id="background_normal_68">
            <path class="Black" d="M428,410.1V406c0-1.1-0.9-2-2-2h-20c-1.1,0-2,0.9-2,2v4.5c-1.2,0.7-2,2-2,3.5v12v2c0,1.1,0.9,2,2,2h24  c1.1,0,2-0.9,2-2v-2v-13C430,411.7,429.2,410.6,428,410.1z M406,407c0-0.6,0.4-1,1-1h18c0.6,0,1,0.4,1,1v3v16h-20v-16V407z"/>
            <g>
                <text transform="matrix(0.9923 0 0 1 410.2783 419.9643)" class="sittext_normal">G3</text>
            </g>
        </g>
        <g id="background_pressed_68">
            <path class="Blue" d="M428,410.2V406c0-1.1-0.9-2-2-2h-20c-1.1,0-2,0.9-2,2v4.5c-1.2,0.7-2,2-2,3.5v12v2c0,1.1,0.9,2,2,2h24  c1.1,0,2-0.9,2-2v-2v-13C430,411.7,429.2,410.6,428,410.2z M406,407c0-0.6,0.4-1,1-1h18c0.6,0,1,0.4,1,1v3v16h-20v-16V407z"/>
            <g>
                <text transform="matrix(0.9923 0 0 1 410.2742 419.9704)" class="sittext_hot">G3</text>
            </g>
        </g>
    </g>
    <g id="seat_67">
        <g id="background_normal_67">
            <path class="Black" d="M388,410.2V406c0-1.1-0.9-2-2-2h-20c-1.1,0-2,0.9-2,2v4.5c-1.2,0.7-2,2-2,3.5v12v2c0,1.1,0.9,2,2,2h24  c1.1,0,2-0.9,2-2v-2v-13C390,411.7,389.2,410.6,388,410.2z M366,407c0-0.6,0.4-1,1-1h18c0.6,0,1,0.4,1,1v3v16h-20v-16V407z"/>
            <g>
                <text transform="matrix(0.9923 0 0 1 370.2783 419.9821)" class="sittext_normal">G4</text>
            </g>
        </g>
        <g id="background_pressed_67">
            <path class="Blue" d="M388,410.2V406c0-1.1-0.9-2-2-2h-20c-1.1,0-2,0.9-2,2v4.5c-1.2,0.7-2,2-2,3.5v12v2c0,1.1,0.9,2,2,2h24  c1.1,0,2-0.9,2-2v-2v-13C390,411.7,389.2,410.6,388,410.2z M366,407c0-0.6,0.4-1,1-1h18c0.6,0,1,0.4,1,1v3v16h-20v-16V407z"/>
            <g>
                <text transform="matrix(0.9923 0 0 1 370.2742 419.9882)" class="sittext_hot">G4</text>
            </g>
        </g>
    </g>
    <g id="seat_66">
        <g id="background_normal_66">
            <path class="Black" d="M348,410.1V406c0-1.1-0.9-2-2-2h-20c-1.1,0-2,0.9-2,2v4.5c-1.2,0.7-2,2-2,3.5v12v2c0,1.1,0.9,2,2,2h24  c1.1,0,2-0.9,2-2v-2v-13C350,411.7,349.2,410.6,348,410.1z M326,407c0-0.6,0.4-1,1-1h18c0.6,0,1,0.4,1,1v3v16h-20v-16V407z"/>
            <g>
                <text transform="matrix(0.9923 0 0 1 330.2783 419.9643)" class="sittext_normal">G5</text>
            </g>
        </g>
        <g id="background_pressed_66">
            <path class="Blue" d="M348,410.2V406c0-1.1-0.9-2-2-2h-20c-1.1,0-2,0.9-2,2v4.5c-1.2,0.7-2,2-2,3.5v12v2c0,1.1,0.9,2,2,2h24  c1.1,0,2-0.9,2-2v-2v-13C350,411.7,349.2,410.6,348,410.2z M326,407c0-0.6,0.4-1,1-1h18c0.6,0,1,0.4,1,1v3v16h-20v-16V407z"/>
            <g>
                <text transform="matrix(0.9923 0 0 1 330.2742 419.9704)" class="sittext_hot">G5</text>
            </g>
        </g>
    </g>
    <g id="seat_65">
        <g id="background_normal_65">
            <path class="Black" d="M308,410.2V406c0-1.1-0.9-2-2-2h-20c-1.1,0-2,0.9-2,2v4.5c-1.2,0.7-2,2-2,3.5v12v2c0,1.1,0.9,2,2,2h24  c1.1,0,2-0.9,2-2v-2v-13C310,411.7,309.2,410.6,308,410.2z M286,407c0-0.6,0.4-1,1-1h18c0.6,0,1,0.4,1,1v3v16h-20v-16V407z"/>
            <g>
                <text transform="matrix(0.9923 0 0 1 290.2783 419.9821)" class="sittext_normal">G6</text>
            </g>
        </g>
        <g id="background_pressed_65">
            <path class="Blue" d="M308,410.2V406c0-1.1-0.9-2-2-2h-20c-1.1,0-2,0.9-2,2v4.5c-1.2,0.7-2,2-2,3.5v12v2c0,1.1,0.9,2,2,2h24  c1.1,0,2-0.9,2-2v-2v-13C310,411.7,309.2,410.6,308,410.2z M286,407c0-0.6,0.4-1,1-1h18c0.6,0,1,0.4,1,1v3v16h-20v-16V407z"/>
            <g>
                <text transform="matrix(0.9923 0 0 1 290.2742 419.9882)" class="sittext_hot">G6</text>
            </g>
        </g>
    </g>
    <g id="seat_64">
        <g id="background_normal_64">
            <path class="Black" d="M268,410.1V406c0-1.1-0.9-2-2-2h-20c-1.1,0-2,0.9-2,2v4.5c-1.2,0.7-2,2-2,3.5v12v2c0,1.1,0.9,2,2,2h24  c1.1,0,2-0.9,2-2v-2v-13C270,411.7,269.2,410.6,268,410.1z M246,407c0-0.6,0.4-1,1-1h18c0.6,0,1,0.4,1,1v3v16h-20v-16V407z"/>
            <g>
                <text transform="matrix(0.9923 0 0 1 249.2783 419.9643)" class="sittext_normal">G7</text>
            </g>
        </g>
        <g id="background_pressed_64">
            <path class="Blue" d="M268,410.2V406c0-1.1-0.9-2-2-2h-20c-1.1,0-2,0.9-2,2v4.5c-1.2,0.7-2,2-2,3.5v12v2c0,1.1,0.9,2,2,2h24  c1.1,0,2-0.9,2-2v-2v-13C270,411.7,269.2,410.6,268,410.2z M246,407c0-0.6,0.4-1,1-1h18c0.6,0,1,0.4,1,1v3v16h-20v-16V407z"/>
            <g>
                <text transform="matrix(0.9923 0 0 1 249.2742 419.9704)" class="sittext_hot">G7</text>
            </g>
        </g>
    </g>
    <g id="seat_63">
        <g id="background_normal_63">
            <path class="Black" d="M228,410.1V406c0-1.1-0.9-2-2-2h-20c-1.1,0-2,0.9-2,2v4.5c-1.2,0.7-2,2-2,3.5v12v2c0,1.1,0.9,2,2,2h24  c1.1,0,2-0.9,2-2v-2v-13C230,411.7,229.2,410.6,228,410.1z M206,407c0-0.6,0.4-1,1-1h18c0.6,0,1,0.4,1,1v3v16h-20v-16V407z"/>
            <g>
                <text transform="matrix(0.9923 0 0 1 209.6979 419.9643)" class="sittext_normal">G8</text>
            </g>
        </g>
        <g id="background_pressed_63">
            <path class="Blue" d="M228,410.2V406c0-1.1-0.9-2-2-2h-20c-1.1,0-2,0.9-2,2v4.5c-1.2,0.7-2,2-2,3.5v12v2c0,1.1,0.9,2,2,2h24  c1.1,0,2-0.9,2-2v-2v-13C230,411.7,229.2,410.6,228,410.2z M206,407c0-0.6,0.4-1,1-1h18c0.6,0,1,0.4,1,1v3v16h-20v-16V407z"/>
            <g>
                <text transform="matrix(0.9923 0 0 1 209.6938 419.9704)" class="sittext_hot">G8</text>
            </g>
        </g>
    </g>
    <g id="seat_62">
        <g id="background_normal_62">
            <path class="Black" d="M188,410.2V406c0-1.1-0.9-2-2-2h-20c-1.1,0-2,0.9-2,2v4.5c-1.2,0.7-2,2-2,3.5v12v2c0,1.1,0.9,2,2,2h24  c1.1,0,2-0.9,2-2v-2v-13C190,411.7,189.2,410.6,188,410.2z M166,407c0-0.6,0.4-1,1-1h18c0.6,0,1,0.4,1,1v3v16h-20v-16V407z"/>
            <g>
                <text transform="matrix(0.9923 0 0 1 169.6979 419.9821)" class="sittext_normal">G9</text>
            </g>
        </g>
        <g id="background_pressed_62">
            <path class="Blue" d="M188,410.2V406c0-1.1-0.9-2-2-2h-20c-1.1,0-2,0.9-2,2v4.5c-1.2,0.7-2,2-2,3.5v12v2c0,1.1,0.9,2,2,2h24  c1.1,0,2-0.9,2-2v-2v-13C190,411.7,189.2,410.6,188,410.2z M166,407c0-0.6,0.4-1,1-1h18c0.6,0,1,0.4,1,1v3v16h-20v-16V407z"/>
            <g>
                <text transform="matrix(0.9923 0 0 1 169.6938 419.9882)" class="sittext_hot">G9</text>
            </g>
        </g>
    </g>
    <g id="seat_61">
        <g id="background_normal_61">
            <path class="Black" d="M148,410.2V406c0-1.1-0.9-2-2-2h-20c-1.1,0-2,0.9-2,2v4.5c-1.2,0.7-2,2-2,3.5v12v2c0,1.1,0.9,2,2,2h24  c1.1,0,2-0.9,2-2v-2v-13C150,411.7,149.2,410.6,148,410.2z M126,407c0-0.6,0.4-1,1-1h18c0.6,0,1,0.4,1,1v3v16h-20v-16V407z"/>
            <g>
                <text transform="matrix(0.9923 0 0 1 127.4196 419.9821)" class="sittext_normal">G10</text>
            </g>
        </g>
        <g id="background_pressed_61">
            <path class="Blue" d="M148,410.2V406c0-1.1-0.9-2-2-2h-20c-1.1,0-2,0.9-2,2v4.5c-1.2,0.7-2,2-2,3.5v12v2c0,1.1,0.9,2,2,2h24  c1.1,0,2-0.9,2-2v-2v-13C150,411.7,149.2,410.6,148,410.2z M126,407c0-0.6,0.4-1,1-1h18c0.6,0,1,0.4,1,1v3v16h-20v-16V407z"/>
            <g>
                <text transform="matrix(0.9923 0 0 1 127.4154 419.9882)" class="sittext_hot">G10</text>
            </g>
        </g>
    </g>
    <g id="seat_60">
        <g id="background_normal_60">
            <g>
                <text transform="matrix(0.9923 0 0 1 87.4196 419.9822)" class="sittext_normal">G11</text>
            </g>
            <path class="Black" d="M108,410.2V406c0-1.1-0.9-2-2-2H86c-1.1,0-2,0.9-2,2v4.5c-1.2,0.7-2,2-2,3.5v12v2c0,1.1,0.9,2,2,2h24  c1.1,0,2-0.9,2-2v-2v-13C110,411.7,109.2,410.6,108,410.2z M86,407c0-0.6,0.4-1,1-1h18c0.6,0,1,0.4,1,1v3v16H86v-16V407z"/>
        </g>
        <g id="background_pressed_60">
            <path class="Blue" d="M108,410.2V406c0-1.1-0.9-2-2-2H86c-1.1,0-2,0.9-2,2v4.5c-1.2,0.7-2,2-2,3.5v12v2c0,1.1,0.9,2,2,2h24  c1.1,0,2-0.9,2-2v-2v-13C110,411.7,109.2,410.6,108,410.2z M86,407c0-0.6,0.4-1,1-1h18c0.6,0,1,0.4,1,1v3v16H86v-16V407z"/>
            <g>
                <text transform="matrix(0.9923 0 0 1 87.4154 419.9883)" class="sittext_hot">G11</text>
            </g>
        </g>
    </g>
    <g id="seat_59">
        <g id="background_normal_59">
            <g>
                <text transform="matrix(0.9923 0 0 1 47.4196 419.9645)" class="sittext_normal">G12</text>
            </g>
            <path class="Black" d="M68,410.1V406c0-1.1-0.9-2-2-2H46c-1.1,0-2,0.9-2,2v4.5c-1.2,0.7-2,2-2,3.5v12v2c0,1.1,0.9,2,2,2h24  c1.1,0,2-0.9,2-2v-2v-13C70,411.7,69.2,410.6,68,410.1z M46,407c0-0.6,0.4-1,1-1h18c0.6,0,1,0.4,1,1v3v16H46v-16V407z"/>
        </g>
        <g id="background_pressed_59">
            <path class="Blue" d="M68,410.2V406c0-1.1-0.9-2-2-2H46c-1.1,0-2,0.9-2,2v4.5c-1.2,0.7-2,2-2,3.5v12v2c0,1.1,0.9,2,2,2h24  c1.1,0,2-0.9,2-2v-2v-13C70,411.7,69.2,410.6,68,410.2z M46,407c0-0.6,0.4-1,1-1h18c0.6,0,1,0.4,1,1v3v16H46v-16V407z"/>
            <g>
                <text transform="matrix(0.9923 0 0 1 47.4154 419.9706)" class="sittext_hot">G12</text>
            </g>
        </g>
    </g>
    <g id="seat_58">
        <g id="background_normal_58">
            <path class="Black" d="M468,372.1V368c0-1.1-0.9-2-2-2h-20c-1.1,0-2,0.9-2,2v4.5c-1.2,0.7-2,2-2,3.5v12v2c0,1.1,0.9,2,2,2h24  c1.1,0,2-0.9,2-2v-2v-13C470,373.7,469.2,372.6,468,372.1z M446,369c0-0.6,0.4-1,1-1h18c0.6,0,1,0.4,1,1v3v16h-20v-16V369z"/>
            <g>
                <text transform="matrix(0.9923 0 0 1 451.269 381.9643)" class="sittext_normal">F1</text>
            </g>
        </g>
        <g id="background_pressed_58">
            <path class="Blue" d="M468,372.2V368c0-1.1-0.9-2-2-2h-20c-1.1,0-2,0.9-2,2v4.5c-1.2,0.7-2,2-2,3.5v12v2c0,1.1,0.9,2,2,2h24  c1.1,0,2-0.9,2-2v-2v-13C470,373.7,469.2,372.6,468,372.2z M446,369c0-0.6,0.4-1,1-1h18c0.6,0,1,0.4,1,1v3v16h-20v-16V369z"/>
            <g>
                <text transform="matrix(0.9923 0 0 1 451.2648 381.9704)" class="sittext_hot">F1</text>
            </g>
        </g>
    </g>
    <g id="seat_57">
        <g id="background_normal_57">
            <path class="Black" d="M428,372.1V368c0-1.1-0.9-2-2-2h-20c-1.1,0-2,0.9-2,2v4.5c-1.2,0.7-2,2-2,3.5v12v2c0,1.1,0.9,2,2,2h24  c1.1,0,2-0.9,2-2v-2v-13C430,373.7,429.2,372.6,428,372.1z M406,369c0-0.6,0.4-1,1-1h18c0.6,0,1,0.4,1,1v3v16h-20v-16V369z"/>
            <g>
                <text transform="matrix(0.9923 0 0 1 410.3075 381.9643)" class="sittext_normal">F2</text>
            </g>
        </g>
        <g id="background_pressed_57">
            <path class="Blue" d="M428,372.2V368c0-1.1-0.9-2-2-2h-20c-1.1,0-2,0.9-2,2v4.5c-1.2,0.7-2,2-2,3.5v12v2c0,1.1,0.9,2,2,2h24  c1.1,0,2-0.9,2-2v-2v-13C430,373.7,429.2,372.6,428,372.2z M406,369c0-0.6,0.4-1,1-1h18c0.6,0,1,0.4,1,1v3v16h-20v-16V369z"/>
            <g>
                <text transform="matrix(0.9923 0 0 1 410.3033 381.9704)" class="sittext_hot">F2</text>
            </g>
        </g>
    </g>
    <g id="seat_56">
        <g id="background_normal_56">
            <path class="Black" d="M388,372.2V368c0-1.1-0.9-2-2-2h-20c-1.1,0-2,0.9-2,2v4.5c-1.2,0.7-2,2-2,3.5v12v2c0,1.1,0.9,2,2,2h24  c1.1,0,2-0.9,2-2v-2v-13C390,373.7,389.2,372.6,388,372.2z M366,369c0-0.6,0.4-1,1-1h18c0.6,0,1,0.4,1,1v3v16h-20v-16V369z"/>
            <g>
                <text transform="matrix(0.9923 0 0 1 370.3075 381.9821)" class="sittext_normal">F3</text>
            </g>
        </g>
        <g id="background_pressed_56">
            <path class="Blue" d="M388,372.2V368c0-1.1-0.9-2-2-2h-20c-1.1,0-2,0.9-2,2v4.5c-1.2,0.7-2,2-2,3.5v12v2c0,1.1,0.9,2,2,2h24  c1.1,0,2-0.9,2-2v-2v-13C390,373.7,389.2,372.6,388,372.2z M366,369c0-0.6,0.4-1,1-1h18c0.6,0,1,0.4,1,1v3v16h-20v-16V369z"/>
            <g>
                <text transform="matrix(0.9923 0 0 1 370.3033 381.9882)" class="sittext_hot">F3</text>
            </g>
        </g>
    </g>
    <g id="seat_55">
        <g id="background_normal_55">
            <path class="Black" d="M348,372.1V368c0-1.1-0.9-2-2-2h-20c-1.1,0-2,0.9-2,2v4.5c-1.2,0.7-2,2-2,3.5v12v2c0,1.1,0.9,2,2,2h24  c1.1,0,2-0.9,2-2v-2v-13C350,373.7,349.2,372.6,348,372.1z M326,369c0-0.6,0.4-1,1-1h18c0.6,0,1,0.4,1,1v3v16h-20v-16V369z"/>
            <g>
                <text transform="matrix(0.9923 0 0 1 330.2787 381.9643)" class="sittext_normal">F4</text>
            </g>
        </g>
        <g id="background_pressed_55">
            <path class="Blue" d="M348,372.2V368c0-1.1-0.9-2-2-2h-20c-1.1,0-2,0.9-2,2v4.5c-1.2,0.7-2,2-2,3.5v12v2c0,1.1,0.9,2,2,2h24  c1.1,0,2-0.9,2-2v-2v-13C350,373.7,349.2,372.6,348,372.2z M326,369c0-0.6,0.4-1,1-1h18c0.6,0,1,0.4,1,1v3v16h-20v-16V369z"/>
            <g>
                <text transform="matrix(0.9923 0 0 1 330.2745 381.9704)" class="sittext_hot">F4</text>
            </g>
        </g>
    </g>
    <g id="seat_54">
        <g id="background_normal_54">
            <path class="Black" d="M308,372.2V368c0-1.1-0.9-2-2-2h-20c-1.1,0-2,0.9-2,2v4.5c-1.2,0.7-2,2-2,3.5v12v2c0,1.1,0.9,2,2,2h24  c1.1,0,2-0.9,2-2v-2v-13C310,373.7,309.2,372.6,308,372.2z M286,369c0-0.6,0.4-1,1-1h18c0.6,0,1,0.4,1,1v3v16h-20v-16V369z"/>
            <g>
                <text transform="matrix(0.9923 0 0 1 290.3171 381.9821)" class="sittext_normal">F5</text>
            </g>
        </g>
        <g id="background_pressed_54">
            <path class="Blue" d="M308,372.2V368c0-1.1-0.9-2-2-2h-20c-1.1,0-2,0.9-2,2v4.5c-1.2,0.7-2,2-2,3.5v12v2c0,1.1,0.9,2,2,2h24  c1.1,0,2-0.9,2-2v-2v-13C310,373.7,309.2,372.6,308,372.2z M286,369c0-0.6,0.4-1,1-1h18c0.6,0,1,0.4,1,1v3v16h-20v-16V369z"/>
            <g>
                <text transform="matrix(0.9923 0 0 1 290.313 381.9882)" class="sittext_hot">F5</text>
            </g>
        </g>
    </g>
    <g id="seat_53">
        <g id="background_normal_53">
            <path class="Black" d="M268,372.1V368c0-1.1-0.9-2-2-2h-20c-1.1,0-2,0.9-2,2v4.5c-1.2,0.7-2,2-2,3.5v12v2c0,1.1,0.9,2,2,2h24  c1.1,0,2-0.9,2-2v-2v-13C270,373.7,269.2,372.6,268,372.1z M246,369c0-0.6,0.4-1,1-1h18c0.6,0,1,0.4,1,1v3v16h-20v-16V369z"/>
            <g>
                <text transform="matrix(0.9923 0 0 1 250.3132 381.9643)" class="sittext_normal">F6</text>
            </g>
        </g>
        <g id="background_pressed_53">
            <path class="Blue" d="M268,372.2V368c0-1.1-0.9-2-2-2h-20c-1.1,0-2,0.9-2,2v4.5c-1.2,0.7-2,2-2,3.5v12v2c0,1.1,0.9,2,2,2h24  c1.1,0,2-0.9,2-2v-2v-13C270,373.7,269.2,372.6,268,372.2z M246,369c0-0.6,0.4-1,1-1h18c0.6,0,1,0.4,1,1v3v16h-20v-16V369z"/>
            <g>
                <text transform="matrix(0.9923 0 0 1 250.3091 381.9704)" class="sittext_hot">F6</text>
            </g>
        </g>
    </g>
    <g id="seat_52">
        <g id="background_normal_52">
            <path class="Black" d="M228,372.1V368c0-1.1-0.9-2-2-2h-20c-1.1,0-2,0.9-2,2v4.5c-1.2,0.7-2,2-2,3.5v12v2c0,1.1,0.9,2,2,2h24  c1.1,0,2-0.9,2-2v-2v-13C230,373.7,229.2,372.6,228,372.1z M206,369c0-0.6,0.4-1,1-1h18c0.6,0,1,0.4,1,1v3v16h-20v-16V369z"/>
            <g>
                <text transform="matrix(0.9923 0 0 1 210.2666 381.9643)" class="sittext_normal">F7</text>
            </g>
        </g>
        <g id="background_pressed_52">
            <path class="Blue" d="M228,372.1V368c0-1.1-0.9-2-2-2h-20c-1.1,0-2,0.9-2,2v4.5c-1.2,0.7-2,2-2,3.5v12v2c0,1.1,0.9,2,2,2h24  c1.1,0,2-0.9,2-2v-2v-13C230,373.7,229.2,372.6,228,372.1z M206,369c0-0.6,0.4-1,1-1h18c0.6,0,1,0.4,1,1v3v16h-20v-16V369z"/>
            <g>
                <text transform="matrix(0.9923 0 0 1 210.2625 381.9704)" class="sittext_hot">F7</text>
            </g>
        </g>
    </g>
    <g id="seat_51">
        <g id="background_normal_51">
            <path class="Black" d="M188,372.2V368c0-1.1-0.9-2-2-2h-20c-1.1,0-2,0.9-2,2v4.5c-1.2,0.7-2,2-2,3.5v12v2c0,1.1,0.9,2,2,2h24  c1.1,0,2-0.9,2-2v-2v-13C190,373.7,189.2,372.6,188,372.2z M166,369c0-0.6,0.4-1,1-1h18c0.6,0,1,0.4,1,1v3v16h-20v-16V369z"/>
            <g>
                <text transform="matrix(0.9923 0 0 1 170.2895 381.9821)" class="sittext_normal">F8</text>
            </g>
        </g>
        <g id="background_pressed_51">
            <path class="Blue" d="M188,372.2V368c0-1.1-0.9-2-2-2h-20c-1.1,0-2,0.9-2,2v4.5c-1.2,0.7-2,2-2,3.5v12v2c0,1.1,0.9,2,2,2h24  c1.1,0,2-0.9,2-2v-2v-13C190,373.7,189.2,372.6,188,372.2z M166,369c0-0.6,0.4-1,1-1h18c0.6,0,1,0.4,1,1v3v16h-20v-16V369z"/>
            <g>
                <text transform="matrix(0.9923 0 0 1 170.2854 381.9882)" class="sittext_hot">F8</text>
            </g>
        </g>
    </g>
    <g id="seat_50">
        <g id="background_normal_50">
            <path class="Black" d="M148,372.2V368c0-1.1-0.9-2-2-2h-20c-1.1,0-2,0.9-2,2v4.5c-1.2,0.7-2,2-2,3.5v12v2c0,1.1,0.9,2,2,2h24  c1.1,0,2-0.9,2-2v-2v-13C150,373.7,149.2,372.6,148,372.2z M126,369c0-0.6,0.4-1,1-1h18c0.6,0,1,0.4,1,1v3v16h-20v-16V369z"/>
            <g>
                <text transform="matrix(0.9923 0 0 1 130.3121 381.9821)" class="sittext_normal">F9</text>
            </g>
        </g>
        <g id="background_pressed_50">
            <path class="Blue" d="M148,372.2V368c0-1.1-0.9-2-2-2h-20c-1.1,0-2,0.9-2,2v4.5c-1.2,0.7-2,2-2,3.5v12v2c0,1.1,0.9,2,2,2h24  c1.1,0,2-0.9,2-2v-2v-13C150,373.7,149.2,372.6,148,372.2z M126,369c0-0.6,0.4-1,1-1h18c0.6,0,1,0.4,1,1v3v16h-20v-16V369z"/>
            <g>
                <text transform="matrix(0.9923 0 0 1 130.308 381.9882)" class="sittext_hot">F9</text>
            </g>
        </g>
    </g>
    <g id="seat_49">
        <g id="background_normal_49">
            <g>
                <text transform="matrix(0.9923 0 0 1 88.2929 381.9822)" class="sittext_normal">F10</text>
            </g>
            <path class="Black" d="M108,372.2V368c0-1.1-0.9-2-2-2H86c-1.1,0-2,0.9-2,2v4.5c-1.2,0.7-2,2-2,3.5v12v2c0,1.1,0.9,2,2,2h24  c1.1,0,2-0.9,2-2v-2v-13C110,373.7,109.2,372.6,108,372.2z M86,369c0-0.6,0.4-1,1-1h18c0.6,0,1,0.4,1,1v3v16H86v-16V369z"/>
        </g>
        <g id="background_pressed_49">
            <path class="Blue" d="M108,372.2V368c0-1.1-0.9-2-2-2H86c-1.1,0-2,0.9-2,2v4.5c-1.2,0.7-2,2-2,3.5v12v2c0,1.1,0.9,2,2,2h24  c1.1,0,2-0.9,2-2v-2v-13C110,373.7,109.2,372.6,108,372.2z M86,369c0-0.6,0.4-1,1-1h18c0.6,0,1,0.4,1,1v3v16H86v-16V369z"/>
            <g>
                <text transform="matrix(0.9923 0 0 1 88.2888 381.9883)" class="sittext_hot">F10</text>
            </g>
        </g>
    </g>
    <g id="seat_48">
        <g id="background_normal_48">
            <path class="Black" d="M468,334.1V330c0-1.1-0.9-2-2-2h-20c-1.1,0-2,0.9-2,2v4.5c-1.2,0.7-2,2-2,3.5v12v2c0,1.1,0.9,2,2,2h24  c1.1,0,2-0.9,2-2v-2v-13C470,335.7,469.2,334.6,468,334.1z M446,331c0-0.6,0.4-1,1-1h18c0.6,0,1,0.4,1,1v3v16h-20v-16V331z"/>
            <g>
                <text transform="matrix(0.9923 0 0 1 450.269 343.9643)" class="sittext_normal">E1</text>
            </g>
        </g>
        <g id="background_pressed_48">
            <path class="Blue" d="M468,334.1V330c0-1.1-0.9-2-2-2h-20c-1.1,0-2,0.9-2,2v4.5c-1.2,0.7-2,2-2,3.5v12v2c0,1.1,0.9,2,2,2h24  c1.1,0,2-0.9,2-2v-2v-13C470,335.6,469.2,334.5,468,334.1z M446,331c0-0.6,0.4-1,1-1h18c0.6,0,1,0.4,1,1v3v16h-20v-16V331z"/>
            <g>
                <text transform="matrix(0.9923 0 0 1 450.2648 343.9704)" class="sittext_hot">E1</text>
            </g>
        </g>
    </g>
    <g id="seat_47">
        <g id="background_normal_47">
            <path class="Black" d="M428,334.1V330c0-1.1-0.9-2-2-2h-20c-1.1,0-2,0.9-2,2v4.5c-1.2,0.7-2,2-2,3.5v12v2c0,1.1,0.9,2,2,2h24  c1.1,0,2-0.9,2-2v-2v-13C430,335.7,429.2,334.6,428,334.1z M406,331c0-0.6,0.4-1,1-1h18c0.6,0,1,0.4,1,1v3v16h-20v-16V331z"/>
            <g>
                <text transform="matrix(0.9923 0 0 1 410.3075 343.9643)" class="sittext_normal">E2</text>
            </g>
        </g>
        <g id="background_pressed_47">
            <path class="Blue" d="M428,334.1V330c0-1.1-0.9-2-2-2h-20c-1.1,0-2,0.9-2,2v4.5c-1.2,0.7-2,2-2,3.5v12v2c0,1.1,0.9,2,2,2h24  c1.1,0,2-0.9,2-2v-2v-13C430,335.6,429.2,334.5,428,334.1z M406,331c0-0.6,0.4-1,1-1h18c0.6,0,1,0.4,1,1v3v16h-20v-16V331z"/>
            <g>
                <text transform="matrix(0.9923 0 0 1 410.3033 343.9704)" class="sittext_hot">E2</text>
            </g>
        </g>
    </g>
    <g id="seat_46">
        <g id="background_normal_46">
            <path class="Black" d="M388,334.2V330c0-1.1-0.9-2-2-2h-20c-1.1,0-2,0.9-2,2v4.5c-1.2,0.7-2,2-2,3.5v12v2c0,1.1,0.9,2,2,2h24  c1.1,0,2-0.9,2-2v-2v-13C390,335.7,389.2,334.6,388,334.2z M366,331c0-0.6,0.4-1,1-1h18c0.6,0,1,0.4,1,1v3v16h-20v-16V331z"/>
            <g>
                <text transform="matrix(0.9923 0 0 1 370.3075 343.9821)" class="sittext_normal">E3</text>
            </g>
        </g>
        <g id="background_pressed_46">
            <path class="Blue" d="M388,334.1V330c0-1.1-0.9-2-2-2h-20c-1.1,0-2,0.9-2,2v4.5c-1.2,0.7-2,2-2,3.5v12v2c0,1.1,0.9,2,2,2h24  c1.1,0,2-0.9,2-2v-2v-13C390,335.7,389.2,334.6,388,334.1z M366,331c0-0.6,0.4-1,1-1h18c0.6,0,1,0.4,1,1v3v16h-20v-16V331z"/>
            <g>
                <text transform="matrix(0.9923 0 0 1 370.3033 343.9882)" class="sittext_hot">E3</text>
            </g>
        </g>
    </g>
    <g id="seat_45">
        <g id="background_normal_45">
            <path class="Black" d="M348,334.1V330c0-1.1-0.9-2-2-2h-20c-1.1,0-2,0.9-2,2v4.5c-1.2,0.7-2,2-2,3.5v12v2c0,1.1,0.9,2,2,2h24  c1.1,0,2-0.9,2-2v-2v-13C350,335.7,349.2,334.6,348,334.1z M326,331c0-0.6,0.4-1,1-1h18c0.6,0,1,0.4,1,1v3v16h-20v-16V331z"/>
            <g>
                <text transform="matrix(0.9923 0 0 1 330.2787 343.9643)" class="sittext_normal">E4</text>
            </g>
        </g>
        <g id="background_pressed_45">
            <path class="Blue" d="M348,334.1V330c0-1.1-0.9-2-2-2h-20c-1.1,0-2,0.9-2,2v4.5c-1.2,0.7-2,2-2,3.5v12v2c0,1.1,0.9,2,2,2h24  c1.1,0,2-0.9,2-2v-2v-13C350,335.6,349.2,334.5,348,334.1z M326,331c0-0.6,0.4-1,1-1h18c0.6,0,1,0.4,1,1v3v16h-20v-16V331z"/>
            <g>
                <text transform="matrix(0.9923 0 0 1 330.2745 343.9704)" class="sittext_hot">E4</text>
            </g>
        </g>
    </g>
    <g id="seat_44">
        <g id="background_normal_44">
            <path class="Black" d="M308,334.2V330c0-1.1-0.9-2-2-2h-20c-1.1,0-2,0.9-2,2v4.5c-1.2,0.7-2,2-2,3.5v12v2c0,1.1,0.9,2,2,2h24  c1.1,0,2-0.9,2-2v-2v-13C310,335.7,309.2,334.6,308,334.2z M286,331c0-0.6,0.4-1,1-1h18c0.6,0,1,0.4,1,1v3v16h-20v-16V331z"/>
            <g>
                <text transform="matrix(0.9923 0 0 1 290.3171 343.9821)" class="sittext_normal">E5</text>
            </g>
        </g>
        <g id="background_pressed_44">
            <path class="Blue" d="M308,334.2V330c0-1.1-0.9-2-2-2h-20c-1.1,0-2,0.9-2,2v4.5c-1.2,0.7-2,2-2,3.5v12v2c0,1.1,0.9,2,2,2h24  c1.1,0,2-0.9,2-2v-2v-13C310,335.7,309.2,334.6,308,334.2z M286,331c0-0.6,0.4-1,1-1h18c0.6,0,1,0.4,1,1v3v16h-20v-16V331z"/>
            <g>
                <text transform="matrix(0.9923 0 0 1 290.313 343.9882)" class="sittext_hot">E5</text>
            </g>
        </g>
    </g>
    <g id="seat_43">
        <g id="background_normal_43">
            <path class="Black" d="M268,334.1V330c0-1.1-0.9-2-2-2h-20c-1.1,0-2,0.9-2,2v4.5c-1.2,0.7-2,2-2,3.5v12v2c0,1.1,0.9,2,2,2h24  c1.1,0,2-0.9,2-2v-2v-13C270,335.7,269.2,334.6,268,334.1z M246,331c0-0.6,0.4-1,1-1h18c0.6,0,1,0.4,1,1v3v16h-20v-16V331z"/>
            <g>
                <text transform="matrix(0.9923 0 0 1 250.3132 343.9643)" class="sittext_normal">E6</text>
            </g>
        </g>
        <g id="background_pressed_43">
            <path class="Blue" d="M268,334.1V330c0-1.1-0.9-2-2-2h-20c-1.1,0-2,0.9-2,2v4.5c-1.2,0.7-2,2-2,3.5v12v2c0,1.1,0.9,2,2,2h24  c1.1,0,2-0.9,2-2v-2v-13C270,335.7,269.2,334.6,268,334.1z M246,331c0-0.6,0.4-1,1-1h18c0.6,0,1,0.4,1,1v3v16h-20v-16V331z"/>
            <g>
                <text transform="matrix(0.9923 0 0 1 250.3091 343.9704)" class="sittext_hot">E6</text>
            </g>
        </g>
    </g>
    <g id="seat_42">
        <g id="background_normal_42">
            <path class="Black" d="M228,334.1V330c0-1.1-0.9-2-2-2h-20c-1.1,0-2,0.9-2,2v4.5c-1.2,0.7-2,2-2,3.5v12v2c0,1.1,0.9,2,2,2h24  c1.1,0,2-0.9,2-2v-2v-13C230,335.7,229.2,334.6,228,334.1z M206,331c0-0.6,0.4-1,1-1h18c0.6,0,1,0.4,1,1v3v16h-20v-16V331z"/>
            <g>
                <text transform="matrix(0.9923 0 0 1 210.2666 343.9643)" class="sittext_normal">E7</text>
            </g>
        </g>
        <g id="background_pressed_42">
            <path class="Blue" d="M228,334.1V330c0-1.1-0.9-2-2-2h-20c-1.1,0-2,0.9-2,2v4.5c-1.2,0.7-2,2-2,3.5v12v2c0,1.1,0.9,2,2,2h24  c1.1,0,2-0.9,2-2v-2v-13C230,335.7,229.2,334.6,228,334.1z M206,331c0-0.6,0.4-1,1-1h18c0.6,0,1,0.4,1,1v3v16h-20v-16V331z"/>
            <g>
                <text transform="matrix(0.9923 0 0 1 210.2625 343.9704)" class="sittext_hot">E7</text>
            </g>
        </g>
    </g>
    <g id="seat_41">
        <g id="background_normal_41">
            <path class="Black" d="M188,334.2V330c0-1.1-0.9-2-2-2h-20c-1.1,0-2,0.9-2,2v4.5c-1.2,0.7-2,2-2,3.5v12v2c0,1.1,0.9,2,2,2h24  c1.1,0,2-0.9,2-2v-2v-13C190,335.7,189.2,334.6,188,334.2z M166,331c0-0.6,0.4-1,1-1h18c0.6,0,1,0.4,1,1v3v16h-20v-16V331z"/>
            <g>
                <text transform="matrix(0.9923 0 0 1 170.2895 343.9821)" class="sittext_normal">E8</text>
            </g>
        </g>
        <g id="background_pressed_41">
            <path class="Blue" d="M188,334.2V330c0-1.1-0.9-2-2-2h-20c-1.1,0-2,0.9-2,2v4.5c-1.2,0.7-2,2-2,3.5v12v2c0,1.1,0.9,2,2,2h24  c1.1,0,2-0.9,2-2v-2v-13C190,335.7,189.2,334.6,188,334.2z M166,331c0-0.6,0.4-1,1-1h18c0.6,0,1,0.4,1,1v3v16h-20v-16V331z"/>
            <g>
                <text transform="matrix(0.9923 0 0 1 170.2854 343.9882)" class="sittext_hot">E8</text>
            </g>
        </g>
    </g>
    <g id="seat_40">
        <g id="background_normal_40">
            <path class="Black" d="M148,334.2V330c0-1.1-0.9-2-2-2h-20c-1.1,0-2,0.9-2,2v4.5c-1.2,0.7-2,2-2,3.5v12v2c0,1.1,0.9,2,2,2h24  c1.1,0,2-0.9,2-2v-2v-13C150,335.7,149.2,334.6,148,334.2z M126,331c0-0.6,0.4-1,1-1h18c0.6,0,1,0.4,1,1v3v16h-20v-16V331z"/>
            <g>
                <text transform="matrix(0.9923 0 0 1 130.3121 343.9821)" class="sittext_normal">E9</text>
            </g>
        </g>
        <g id="background_pressed_40">
            <path class="Blue" d="M148,334.2V330c0-1.1-0.9-2-2-2h-20c-1.1,0-2,0.9-2,2v4.5c-1.2,0.7-2,2-2,3.5v12v2c0,1.1,0.9,2,2,2h24  c1.1,0,2-0.9,2-2v-2v-13C150,335.7,149.2,334.6,148,334.2z M126,331c0-0.6,0.4-1,1-1h18c0.6,0,1,0.4,1,1v3v16h-20v-16V331z"/>
            <g>
                <text transform="matrix(0.9923 0 0 1 130.308 343.9882)" class="sittext_hot">E9</text>
            </g>
        </g>
    </g>
    <g id="seat_39">
        <g id="background_normal_39">
            <g>
                <text transform="matrix(0.9923 0 0 1 88 343.9822)" class="sittext_normal">E10</text>
            </g>
            <path class="Black" d="M108,334.2V330c0-1.1-0.9-2-2-2H86c-1.1,0-2,0.9-2,2v4.5c-1.2,0.7-2,2-2,3.5v12v2c0,1.1,0.9,2,2,2h24  c1.1,0,2-0.9,2-2v-2v-13C110,335.7,109.2,334.6,108,334.2z M86,331c0-0.6,0.4-1,1-1h18c0.6,0,1,0.4,1,1v3v16H86v-16V331z"/>
        </g>
        <g id="background_pressed_39">
            <path class="Blue" d="M108,334.2V330c0-1.1-0.9-2-2-2H86c-1.1,0-2,0.9-2,2v4.5c-1.2,0.7-2,2-2,3.5v12v2c0,1.1,0.9,2,2,2h24  c1.1,0,2-0.9,2-2v-2v-13C110,335.7,109.2,334.6,108,334.2z M86,331c0-0.6,0.4-1,1-1h18c0.6,0,1,0.4,1,1v3v16H86v-16V331z"/>
            <g>
                <text transform="matrix(0.9923 0 0 1 87.9959 343.9883)" class="sittext_hot">E10</text>
            </g>
        </g>
    </g>
    <g id="seat_38">
        <g id="background_normal_38">
            <path class="Black" d="M468,278.1V274c0-1.1-0.9-2-2-2h-20c-1.1,0-2,0.9-2,2v4.5c-1.2,0.7-2,2-2,3.5v12v2c0,1.1,0.9,2,2,2h24  c1.1,0,2-0.9,2-2v-2v-13C470,279.7,469.2,278.6,468,278.1z M446,275c0-0.6,0.4-1,1-1h18c0.6,0,1,0.4,1,1v3v16h-20v-16V275z"/>
            <g>
                <text transform="matrix(0.9923 0 0 1 450.2783 287.9643)" class="sittext_normal">D1</text>
            </g>
        </g>
        <g id="background_pressed_38">
            <path class="Blue" d="M468,278.1V274c0-1.1-0.9-2-2-2h-20c-1.1,0-2,0.9-2,2v4.5c-1.2,0.7-2,2-2,3.5v12v2c0,1.1,0.9,2,2,2h24  c1.1,0,2-0.9,2-2v-2v-13C470,279.7,469.2,278.6,468,278.1z M446,275c0-0.6,0.4-1,1-1h18c0.6,0,1,0.4,1,1v3v16h-20v-16V275z"/>
            <g>
                <text transform="matrix(0.9923 0 0 1 450.2619 287.9582)" class="sittext_hot">D1</text>
            </g>
        </g>
    </g>
    <g id="seat_37">
        <g id="background_normal_37">
            <path class="Black" d="M428,278.1V274c0-1.1-0.9-2-2-2h-20c-1.1,0-2,0.9-2,2v4.5c-1.2,0.7-2,2-2,3.5v12v2c0,1.1,0.9,2,2,2h24  c1.1,0,2-0.9,2-2v-2v-13C430,279.7,429.2,278.6,428,278.1z M406,275c0-0.6,0.4-1,1-1h18c0.6,0,1,0.4,1,1v3v16h-20v-16V275z"/>
            <g>
                <text transform="matrix(0.9923 0 0 1 410.2783 287.9643)" class="sittext_normal">D2</text>
            </g>
        </g>
        <g id="background_pressed_37">
            <path class="Blue" d="M428,278.1V274c0-1.1-0.9-2-2-2h-20c-1.1,0-2,0.9-2,2v4.5c-1.2,0.7-2,2-2,3.5v12v2c0,1.1,0.9,2,2,2h24  c1.1,0,2-0.9,2-2v-2v-13C430,279.7,429.2,278.6,428,278.1z M406,275c0-0.6,0.4-1,1-1h18c0.6,0,1,0.4,1,1v3v16h-20v-16V275z"/>
            <g>
                <text transform="matrix(0.9923 0 0 1 410.2619 287.9582)" class="sittext_hot">D2</text>
            </g>
        </g>
    </g>
    <g id="seat_36">
        <g id="background_normal_36">
            <path class="Black" d="M388,278.2V274c0-1.1-0.9-2-2-2h-20c-1.1,0-2,0.9-2,2v4.5c-1.2,0.7-2,2-2,3.5v12v2c0,1.1,0.9,2,2,2h24  c1.1,0,2-0.9,2-2v-2v-13C390,279.7,389.2,278.6,388,278.2z M366,275c0-0.6,0.4-1,1-1h18c0.6,0,1,0.4,1,1v3v16h-20v-16V275z"/>
            <g>
                <text transform="matrix(0.9923 0 0 1 370.2783 287.9821)" class="sittext_normal">D3</text>
            </g>
        </g>
        <g id="background_pressed_36">
            <path class="Blue" d="M388,278.2V274c0-1.1-0.9-2-2-2h-20c-1.1,0-2,0.9-2,2v4.5c-1.2,0.7-2,2-2,3.5v12v2c0,1.1,0.9,2,2,2h24  c1.1,0,2-0.9,2-2v-2v-13C390,279.7,389.2,278.6,388,278.2z M366,275c0-0.6,0.4-1,1-1h18c0.6,0,1,0.4,1,1v3v16h-20v-16V275z"/>
            <g>
                <text transform="matrix(0.9923 0 0 1 370.2619 287.9759)" class="sittext_hot">D3</text>
            </g>
        </g>
    </g>
    <g id="seat_35">
        <g id="background_normal_35">
            <path class="Black" d="M348,278.1V274c0-1.1-0.9-2-2-2h-20c-1.1,0-2,0.9-2,2v4.5c-1.2,0.7-2,2-2,3.5v12v2c0,1.1,0.9,2,2,2h24  c1.1,0,2-0.9,2-2v-2v-13C350,279.7,349.2,278.6,348,278.1z M326,275c0-0.6,0.4-1,1-1h18c0.6,0,1,0.4,1,1v3v16h-20v-16V275z"/>
            <g>
                <text transform="matrix(0.9923 0 0 1 330.2783 287.9643)" class="sittext_normal">D4</text>
            </g>
        </g>
        <g id="background_pressed_35">
            <path class="Blue" d="M348,278.1V274c0-1.1-0.9-2-2-2h-20c-1.1,0-2,0.9-2,2v4.5c-1.2,0.7-2,2-2,3.5v12v2c0,1.1,0.9,2,2,2h24  c1.1,0,2-0.9,2-2v-2v-13C350,279.7,349.2,278.6,348,278.1z M326,275c0-0.6,0.4-1,1-1h18c0.6,0,1,0.4,1,1v3v16h-20v-16V275z"/>
            <g>
                <text transform="matrix(0.9923 0 0 1 330.2619 287.9582)" class="sittext_hot">D4</text>
            </g>
        </g>
    </g>
    <g id="seat_34">
        <g id="background_normal_34">
            <path class="Black" d="M308,278.2V274c0-1.1-0.9-2-2-2h-20c-1.1,0-2,0.9-2,2v4.5c-1.2,0.7-2,2-2,3.5v12v2c0,1.1,0.9,2,2,2h24  c1.1,0,2-0.9,2-2v-2v-13C310,279.7,309.2,278.6,308,278.2z M286,275c0-0.6,0.4-1,1-1h18c0.6,0,1,0.4,1,1v3v16h-20v-16V275z"/>
            <g>
                <text transform="matrix(0.9923 0 0 1 290.2783 287.9821)" class="sittext_normal">D5</text>
            </g>
        </g>
        <g id="background_pressed_34">
            <path class="Blue" d="M308,278.2V274c0-1.1-0.9-2-2-2h-20c-1.1,0-2,0.9-2,2v4.5c-1.2,0.7-2,2-2,3.5v12v2c0,1.1,0.9,2,2,2h24  c1.1,0,2-0.9,2-2v-2v-13C310,279.7,309.2,278.6,308,278.2z M286,275c0-0.6,0.4-1,1-1h18c0.6,0,1,0.4,1,1v3v16h-20v-16V275z"/>
            <g>
                <text transform="matrix(0.9923 0 0 1 290.2619 287.9759)" class="sittext_hot">D5</text>
            </g>
        </g>
    </g>
    <g id="seat_33">
        <g id="background_normal_33">
            <path class="Black" d="M268,278.1V274c0-1.1-0.9-2-2-2h-20c-1.1,0-2,0.9-2,2v4.5c-1.2,0.7-2,2-2,3.5v12v2c0,1.1,0.9,2,2,2h24  c1.1,0,2-0.9,2-2v-2v-13C270,279.7,269.2,278.6,268,278.1z M246,275c0-0.6,0.4-1,1-1h18c0.6,0,1,0.4,1,1v3v16h-20v-16V275z"/>
            <g>
                <text transform="matrix(0.9923 0 0 1 250.2783 287.9643)" class="sittext_normal">D6</text>
            </g>
        </g>
        <g id="background_pressed_33">
            <path class="Blue" d="M268,278.1V274c0-1.1-0.9-2-2-2h-20c-1.1,0-2,0.9-2,2v4.5c-1.2,0.7-2,2-2,3.5v12v2c0,1.1,0.9,2,2,2h24  c1.1,0,2-0.9,2-2v-2v-13C270,279.7,269.2,278.6,268,278.1z M246,275c0-0.6,0.4-1,1-1h18c0.6,0,1,0.4,1,1v3v16h-20v-16V275z"/>
            <g>
                <text transform="matrix(0.9923 0 0 1 250.2619 287.9582)" class="sittext_hot">D6</text>
            </g>
        </g>
    </g>
    <g id="seat_32">
        <g id="background_normal_32">
            <path class="Black" d="M228,278.1V274c0-1.1-0.9-2-2-2h-20c-1.1,0-2,0.9-2,2v4.5c-1.2,0.7-2,2-2,3.5v12v2c0,1.1,0.9,2,2,2h24  c1.1,0,2-0.9,2-2v-2v-13C230,279.7,229.2,278.6,228,278.1z M206,275c0-0.6,0.4-1,1-1h18c0.6,0,1,0.4,1,1v3v16h-20v-16V275z"/>
            <g>
                <text transform="matrix(0.9923 0 0 1 210.2783 287.9643)" class="sittext_normal">D7</text>
            </g>
        </g>
        <g id="background_pressed_32">
            <path class="Blue" d="M228,278.1V274c0-1.1-0.9-2-2-2h-20c-1.1,0-2,0.9-2,2v4.5c-1.2,0.7-2,2-2,3.5v12v2c0,1.1,0.9,2,2,2h24  c1.1,0,2-0.9,2-2v-2v-13C230,279.7,229.2,278.6,228,278.1z M206,275c0-0.6,0.4-1,1-1h18c0.6,0,1,0.4,1,1v3v16h-20v-16V275z"/>
            <g>
                <text transform="matrix(0.9923 0 0 1 210.2619 287.9582)" class="sittext_hot">D7</text>
            </g>
        </g>
    </g>
    <g id="seat_31">
        <g id="background_normal_31">
            <path class="Black" d="M188,278.2V274c0-1.1-0.9-2-2-2h-20c-1.1,0-2,0.9-2,2v4.5c-1.2,0.7-2,2-2,3.5v12v2c0,1.1,0.9,2,2,2h24  c1.1,0,2-0.9,2-2v-2v-13C190,279.7,189.2,278.6,188,278.2z M166,275c0-0.6,0.4-1,1-1h18c0.6,0,1,0.4,1,1v3v16h-20v-16V275z"/>
            <g>
                <text transform="matrix(0.9923 0 0 1 170.2783 287.9821)" class="sittext_normal">D8</text>
            </g>
        </g>
        <g id="background_pressed_31">
            <path class="Blue" d="M188,278.1V274c0-1.1-0.9-2-2-2h-20c-1.1,0-2,0.9-2,2v4.5c-1.2,0.7-2,2-2,3.5v12v2c0,1.1,0.9,2,2,2h24  c1.1,0,2-0.9,2-2v-2v-13C190,279.7,189.2,278.6,188,278.1z M166,275c0-0.6,0.4-1,1-1h18c0.6,0,1,0.4,1,1v3v16h-20v-16V275z"/>
            <g>
                <text transform="matrix(0.9923 0 0 1 170.2619 287.9759)" class="sittext_hot">D8</text>
            </g>
        </g>
    </g>
    <g id="seat_30">
        <g id="background_normal_30">
            <path class="Black" d="M148,278.2V274c0-1.1-0.9-2-2-2h-20c-1.1,0-2,0.9-2,2v4.5c-1.2,0.7-2,2-2,3.5v12v2c0,1.1,0.9,2,2,2h24  c1.1,0,2-0.9,2-2v-2v-13C150,279.7,149.2,278.6,148,278.2z M126,275c0-0.6,0.4-1,1-1h18c0.6,0,1,0.4,1,1v3v16h-20v-16V275z"/>
            <g>
                <text transform="matrix(0.9923 0 0 1 130.2783 287.9821)" class="sittext_normal">D9</text>
            </g>
        </g>
        <g id="background_pressed_30">
            <path class="Blue" d="M148,278.1V274c0-1.1-0.9-2-2-2h-20c-1.1,0-2,0.9-2,2v4.5c-1.2,0.7-2,2-2,3.5v12v2c0,1.1,0.9,2,2,2h24  c1.1,0,2-0.9,2-2v-2v-13C150,279.7,149.2,278.6,148,278.1z M126,275c0-0.6,0.4-1,1-1h18c0.6,0,1,0.4,1,1v3v16h-20v-16V275z"/>
            <g>
                <text transform="matrix(0.9923 0 0 1 130.2619 287.9759)" class="sittext_hot">D9</text>
            </g>
        </g>
    </g>
    <g id="seat_29">
        <g id="background_normal_29">
            <g>
                <text transform="matrix(0.9923 0 0 1 88 287.9822)" class="sittext_normal">D10</text>
            </g>
            <path class="Black" d="M108,278.2V274c0-1.1-0.9-2-2-2H86c-1.1,0-2,0.9-2,2v4.5c-1.2,0.7-2,2-2,3.5v12v2c0,1.1,0.9,2,2,2h24  c1.1,0,2-0.9,2-2v-2v-13C110,279.7,109.2,278.6,108,278.2z M86,275c0-0.6,0.4-1,1-1h18c0.6,0,1,0.4,1,1v3v16H86v-16V275z"/>
        </g>
        <g id="background_pressed_29">
            <path class="Blue" d="M108,278.1V274c0-1.1-0.9-2-2-2H86c-1.1,0-2,0.9-2,2v4.5c-1.2,0.7-2,2-2,3.5v12v2c0,1.1,0.9,2,2,2h24  c1.1,0,2-0.9,2-2v-2v-13C110,279.7,109.2,278.6,108,278.1z M86,275c0-0.6,0.4-1,1-1h18c0.6,0,1,0.4,1,1v3v16H86v-16V275z"/>
            <g>
                <text transform="matrix(0.9923 0 0 1 87.9836 287.9761)" class="sittext_hot">D10</text>
            </g>
        </g>
    </g>
    <g id="seat_28">
        <g id="background_normal_28">
            <path class="Black" d="M468,240.1V236c0-1.1-0.9-2-2-2h-20c-1.1,0-2,0.9-2,2v4.5c-1.2,0.7-2,2-2,3.5v12v2c0,1.1,0.9,2,2,2h24  c1.1,0,2-0.9,2-2v-2v-13C470,241.7,469.2,240.6,468,240.1z M446,237c0-0.6,0.4-1,1-1h18c0.6,0,1,0.4,1,1v3v16h-20v-16V237z"/>
            <g>
                <text transform="matrix(0.9923 0 0 1 450.2783 249.9643)" class="sittext_normal">C1</text>
            </g>
        </g>
        <g id="background_pressed_28">
            <path class="Blue" d="M468,240.1V236c0-1.1-0.9-2-2-2h-20c-1.1,0-2,0.9-2,2v4.5c-1.2,0.7-2,2-2,3.5v12v2c0,1.1,0.9,2,2,2h24  c1.1,0,2-0.9,2-2v-2v-13C470,241.7,469.2,240.6,468,240.1z M446,237c0-0.6,0.4-1,1-1h18c0.6,0,1,0.4,1,1v3v16h-20v-16V237z"/>
            <g>
                <text transform="matrix(0.9923 0 0 1 450.2619 249.9582)" class="sittext_hot">C1</text>
            </g>
        </g>
    </g>
    <g id="seat_27">
        <g id="background_normal_27">
            <path class="Black" d="M428,240.1V236c0-1.1-0.9-2-2-2h-20c-1.1,0-2,0.9-2,2v4.5c-1.2,0.7-2,2-2,3.5v12v2c0,1.1,0.9,2,2,2h24  c1.1,0,2-0.9,2-2v-2v-13C430,241.7,429.2,240.6,428,240.1z M406,237c0-0.6,0.4-1,1-1h18c0.6,0,1,0.4,1,1v3v16h-20v-16V237z"/>
            <g>
                <text transform="matrix(0.9923 0 0 1 410.2783 249.9643)" class="sittext_normal">C2</text>
            </g>
        </g>
        <g id="background_pressed_27">
            <path class="Blue" d="M428,240.1V236c0-1.1-0.9-2-2-2h-20c-1.1,0-2,0.9-2,2v4.5c-1.2,0.7-2,2-2,3.5v12v2c0,1.1,0.9,2,2,2h24  c1.1,0,2-0.9,2-2v-2v-13C430,241.7,429.2,240.6,428,240.1z M406,237c0-0.6,0.4-1,1-1h18c0.6,0,1,0.4,1,1v3v16h-20v-16V237z"/>
            <g>
                <text transform="matrix(0.9923 0 0 1 410.2619 249.9582)" class="sittext_hot">C2</text>
            </g>
        </g>
    </g>
    <g id="seat_26">
        <g id="background_normal_26">
            <path class="Black" d="M388,240.2V236c0-1.1-0.9-2-2-2h-20c-1.1,0-2,0.9-2,2v4.5c-1.2,0.7-2,2-2,3.5v12v2c0,1.1,0.9,2,2,2h24  c1.1,0,2-0.9,2-2v-2v-13C390,241.7,389.2,240.6,388,240.2z M366,237c0-0.6,0.4-1,1-1h18c0.6,0,1,0.4,1,1v3v16h-20v-16V237z"/>
            <g>
                <text transform="matrix(0.9923 0 0 1 370.2783 249.9821)" class="sittext_normal">C3</text>
            </g>
        </g>
        <g id="background_pressed_26">
            <path class="Blue" d="M388,240.2V236c0-1.1-0.9-2-2-2h-20c-1.1,0-2,0.9-2,2v4.5c-1.2,0.7-2,2-2,3.5v12v2c0,1.1,0.9,2,2,2h24  c1.1,0,2-0.9,2-2v-2v-13C390,241.7,389.2,240.6,388,240.2z M366,237c0-0.6,0.4-1,1-1h18c0.6,0,1,0.4,1,1v3v16h-20v-16V237z"/>
            <g>
                <text transform="matrix(0.9923 0 0 1 370.2619 249.9759)" class="sittext_hot">C3</text>
            </g>
        </g>
    </g>
    <g id="seat_25">
        <g id="background_normal_25">
            <path class="Black" d="M348,240.1V236c0-1.1-0.9-2-2-2h-20c-1.1,0-2,0.9-2,2v4.5c-1.2,0.7-2,2-2,3.5v12v2c0,1.1,0.9,2,2,2h24  c1.1,0,2-0.9,2-2v-2v-13C350,241.7,349.2,240.6,348,240.1z M326,237c0-0.6,0.4-1,1-1h18c0.6,0,1,0.4,1,1v3v16h-20v-16V237z"/>
            <g>
                <text transform="matrix(0.9923 0 0 1 330.2783 249.9643)" class="sittext_normal">C4</text>
            </g>
        </g>
        <g id="background_pressed_25">
            <path class="Blue" d="M348,240.1V236c0-1.1-0.9-2-2-2h-20c-1.1,0-2,0.9-2,2v4.5c-1.2,0.7-2,2-2,3.5v12v2c0,1.1,0.9,2,2,2h24  c1.1,0,2-0.9,2-2v-2v-13C350,241.7,349.2,240.6,348,240.1z M326,237c0-0.6,0.4-1,1-1h18c0.6,0,1,0.4,1,1v3v16h-20v-16V237z"/>
            <g>
                <text transform="matrix(0.9923 0 0 1 330.2619 249.9582)" class="sittext_hot">C4</text>
            </g>
        </g>
    </g>
    <g id="seat_24">
        <g id="background_normal_24">
            <path class="Black" d="M308,240.2V236c0-1.1-0.9-2-2-2h-20c-1.1,0-2,0.9-2,2v4.5c-1.2,0.7-2,2-2,3.5v12v2c0,1.1,0.9,2,2,2h24  c1.1,0,2-0.9,2-2v-2v-13C310,241.7,309.2,240.6,308,240.2z M286,237c0-0.6,0.4-1,1-1h18c0.6,0,1,0.4,1,1v3v16h-20v-16V237z"/>
            <g>
                <text transform="matrix(0.9923 0 0 1 290.2783 249.9821)" class="sittext_normal">C5</text>
            </g>
        </g>
        <g id="background_pressed_24">
            <path class="Blue" d="M308,240.2V236c0-1.1-0.9-2-2-2h-20c-1.1,0-2,0.9-2,2v4.5c-1.2,0.7-2,2-2,3.5v12v2c0,1.1,0.9,2,2,2h24  c1.1,0,2-0.9,2-2v-2v-13C310,241.7,309.2,240.6,308,240.2z M286,237c0-0.6,0.4-1,1-1h18c0.6,0,1,0.4,1,1v3v16h-20v-16V237z"/>
            <g>
                <text transform="matrix(0.9923 0 0 1 290.2619 249.9759)" class="sittext_hot">C5</text>
            </g>
        </g>
    </g>
    <g id="seat_23">
        <g id="background_normal_23">
            <path class="Black" d="M268,240.1V236c0-1.1-0.9-2-2-2h-20c-1.1,0-2,0.9-2,2v4.5c-1.2,0.7-2,2-2,3.5v12v2c0,1.1,0.9,2,2,2h24  c1.1,0,2-0.9,2-2v-2v-13C270,241.7,269.2,240.6,268,240.1z M246,237c0-0.6,0.4-1,1-1h18c0.6,0,1,0.4,1,1v3v16h-20v-16V237z"/>
            <g>
                <text transform="matrix(0.9923 0 0 1 250.2783 249.9643)" class="sittext_normal">C6</text>
            </g>
        </g>
        <g id="background_pressed_23">
            <path class="Blue" d="M268,240.1V236c0-1.1-0.9-2-2-2h-20c-1.1,0-2,0.9-2,2v4.5c-1.2,0.7-2,2-2,3.5v12v2c0,1.1,0.9,2,2,2h24  c1.1,0,2-0.9,2-2v-2v-13C270,241.7,269.2,240.6,268,240.1z M246,237c0-0.6,0.4-1,1-1h18c0.6,0,1,0.4,1,1v3v16h-20v-16V237z"/>
            <g>
                <text transform="matrix(0.9923 0 0 1 250.2619 249.9582)" class="sittext_hot">C6</text>
            </g>
        </g>
    </g>
    <g id="seat_22">
        <g id="background_normal_22">
            <path class="Black" d="M228,240.1V236c0-1.1-0.9-2-2-2h-20c-1.1,0-2,0.9-2,2v4.5c-1.2,0.7-2,2-2,3.5v12v2c0,1.1,0.9,2,2,2h24  c1.1,0,2-0.9,2-2v-2v-13C230,241.7,229.2,240.6,228,240.1z M206,237c0-0.6,0.4-1,1-1h18c0.6,0,1,0.4,1,1v3v16h-20v-16V237z"/>
            <g>
                <text transform="matrix(0.9923 0 0 1 210.2783 249.9643)" class="sittext_normal">C7</text>
            </g>
        </g>
        <g id="background_pressed_22">
            <path class="Blue" d="M228,240.1V236c0-1.1-0.9-2-2-2h-20c-1.1,0-2,0.9-2,2v4.5c-1.2,0.7-2,2-2,3.5v12v2c0,1.1,0.9,2,2,2h24  c1.1,0,2-0.9,2-2v-2v-13C230,241.7,229.2,240.6,228,240.1z M206,237c0-0.6,0.4-1,1-1h18c0.6,0,1,0.4,1,1v3v16h-20v-16V237z"/>
            <g>
                <text transform="matrix(0.9923 0 0 1 210.2619 249.9582)" class="sittext_hot">C7</text>
            </g>
        </g>
    </g>
    <g id="seat_21">
        <g id="background_normal_21">
            <path class="Black" d="M188,240.2V236c0-1.1-0.9-2-2-2h-20c-1.1,0-2,0.9-2,2v4.5c-1.2,0.7-2,2-2,3.5v12v2c0,1.1,0.9,2,2,2h24  c1.1,0,2-0.9,2-2v-2v-13C190,241.7,189.2,240.6,188,240.2z M166,237c0-0.6,0.4-1,1-1h18c0.6,0,1,0.4,1,1v3v16h-20v-16V237z"/>
            <g>
                <text transform="matrix(0.9923 0 0 1 170.2783 249.9821)" class="sittext_normal">C8</text>
            </g>
        </g>
        <g id="background_pressed_21">
            <path class="Blue" d="M188,240.2V236c0-1.1-0.9-2-2-2h-20c-1.1,0-2,0.9-2,2v4.5c-1.2,0.7-2,2-2,3.5v12v2c0,1.1,0.9,2,2,2h24  c1.1,0,2-0.9,2-2v-2v-13C190,241.7,189.2,240.6,188,240.2z M166,237c0-0.6,0.4-1,1-1h18c0.6,0,1,0.4,1,1v3v16h-20v-16V237z"/>
            <g>
                <text transform="matrix(0.9923 0 0 1 170.2619 249.9759)" class="sittext_hot">C8</text>
            </g>
        </g>
    </g>
    <g id="seat_20">
        <g id="background_normal_20">
            <path class="Black" d="M148,240.2V236c0-1.1-0.9-2-2-2h-20c-1.1,0-2,0.9-2,2v4.5c-1.2,0.7-2,2-2,3.5v12v2c0,1.1,0.9,2,2,2h24  c1.1,0,2-0.9,2-2v-2v-13C150,241.7,149.2,240.6,148,240.2z M126,237c0-0.6,0.4-1,1-1h18c0.6,0,1,0.4,1,1v3v16h-20v-16V237z"/>
            <g>
                <text transform="matrix(0.9923 0 0 1 130.2783 249.9821)" class="sittext_normal">C9</text>
            </g>
        </g>
        <g id="background_pressed_20">
            <path class="Blue" d="M148,240.2V236c0-1.1-0.9-2-2-2h-20c-1.1,0-2,0.9-2,2v4.5c-1.2,0.7-2,2-2,3.5v12v2c0,1.1,0.9,2,2,2h24  c1.1,0,2-0.9,2-2v-2v-13C150,241.7,149.2,240.6,148,240.2z M126,237c0-0.6,0.4-1,1-1h18c0.6,0,1,0.4,1,1v3v16h-20v-16V237z"/>
            <g>
                <text transform="matrix(0.9923 0 0 1 130.2619 249.9759)" class="sittext_hot">C9</text>
            </g>
        </g>
    </g>
    <g id="seat_19">
        <g id="background_normal_19">
            <g>
                <text transform="matrix(0.9923 0 0 1 88 249.9822)" class="sittext_normal">C10</text>
            </g>
            <path class="Black" d="M108,240.2V236c0-1.1-0.9-2-2-2H86c-1.1,0-2,0.9-2,2v4.5c-1.2,0.7-2,2-2,3.5v12v2c0,1.1,0.9,2,2,2h24  c1.1,0,2-0.9,2-2v-2v-13C110,241.7,109.2,240.6,108,240.2z M86,237c0-0.6,0.4-1,1-1h18c0.6,0,1,0.4,1,1v3v16H86v-16V237z"/>
        </g>
        <g id="background_pressed_19">
            <path class="Blue" d="M108,240.2V236c0-1.1-0.9-2-2-2H86c-1.1,0-2,0.9-2,2v4.5c-1.2,0.7-2,2-2,3.5v12v2c0,1.1,0.9,2,2,2h24  c1.1,0,2-0.9,2-2v-2v-13C110,241.7,109.2,240.6,108,240.2z M86,237c0-0.6,0.4-1,1-1h18c0.6,0,1,0.4,1,1v3v16H86v-16V237z"/>
            <g>
                <text transform="matrix(0.9923 0 0 1 87.9836 249.9761)" class="sittext_hot">C10</text>
            </g>
        </g>
    </g>
    <g id="seat_18">
        <g id="background_normal_18">
            <path class="Black" d="M468,202.1V198c0-1.1-0.9-2-2-2h-20c-1.1,0-2,0.9-2,2v4.5c-1.2,0.7-2,2-2,3.5v12v2c0,1.1,0.9,2,2,2h24  c1.1,0,2-0.9,2-2v-2v-13C470,203.7,469.2,202.6,468,202.1z M446,199c0-0.6,0.4-1,1-1h18c0.6,0,1,0.4,1,1v3v16h-20v-16V199z"/>
            <g>
                <text transform="matrix(0.9923 0 0 1 450.2783 211.9643)" class="sittext_normal">B1</text>
            </g>
        </g>
        <g id="background_pressed_18">
            <path class="Blue" d="M468,202.1V198c0-1.1-0.9-2-2-2h-20c-1.1,0-2,0.9-2,2v4.5c-1.2,0.7-2,2-2,3.5v12v2c0,1.1,0.9,2,2,2h24  c1.1,0,2-0.9,2-2v-2v-13C470,203.7,469.2,202.6,468,202.1z M446,199c0-0.6,0.4-1,1-1h18c0.6,0,1,0.4,1,1v3v16h-20v-16V199z"/>
            <g>
                <text transform="matrix(0.9923 0 0 1 450.2619 211.9582)" class="sittext_hot">B1</text>
            </g>
        </g>
    </g>
    <g id="seat_17">
        <g id="background_normal_17">
            <path class="Black" d="M428,202.1V198c0-1.1-0.9-2-2-2h-20c-1.1,0-2,0.9-2,2v4.5c-1.2,0.7-2,2-2,3.5v12v2c0,1.1,0.9,2,2,2h24  c1.1,0,2-0.9,2-2v-2v-13C430,203.7,429.2,202.6,428,202.1z M406,199c0-0.6,0.4-1,1-1h18c0.6,0,1,0.4,1,1v3v16h-20v-16V199z"/>
            <g>
                <text transform="matrix(0.9923 0 0 1 410.2783 211.9643)" class="sittext_normal">B2</text>
            </g>
        </g>
        <g id="background_pressed_17">
            <path class="Blue" d="M428,202.1V198c0-1.1-0.9-2-2-2h-20c-1.1,0-2,0.9-2,2v4.5c-1.2,0.7-2,2-2,3.5v12v2c0,1.1,0.9,2,2,2h24  c1.1,0,2-0.9,2-2v-2v-13C430,203.7,429.2,202.6,428,202.1z M406,199c0-0.6,0.4-1,1-1h18c0.6,0,1,0.4,1,1v3v16h-20v-16V199z"/>
            <g>
                <text transform="matrix(0.9923 0 0 1 410.2619 211.9582)" class="sittext_hot">B2</text>
            </g>
        </g>
    </g>
    <g id="seat_16">
        <g id="background_normal_16">
            <path class="Black" d="M388,202.2V198c0-1.1-0.9-2-2-2h-20c-1.1,0-2,0.9-2,2v4.5c-1.2,0.7-2,2-2,3.5v12v2c0,1.1,0.9,2,2,2h24  c1.1,0,2-0.9,2-2v-2v-13C390,203.7,389.2,202.6,388,202.2z M366,199c0-0.6,0.4-1,1-1h18c0.6,0,1,0.4,1,1v3v16h-20v-16V199z"/>
            <g>
                <text transform="matrix(0.9923 0 0 1 370.2783 211.9821)" class="sittext_normal">B3</text>
            </g>
        </g>
        <g id="background_pressed_16">
            <path class="Blue" d="M388,202.1V198c0-1.1-0.9-2-2-2h-20c-1.1,0-2,0.9-2,2v4.5c-1.2,0.7-2,2-2,3.5v12v2c0,1.1,0.9,2,2,2h24  c1.1,0,2-0.9,2-2v-2v-13C390,203.7,389.2,202.6,388,202.1z M366,199c0-0.6,0.4-1,1-1h18c0.6,0,1,0.4,1,1v3v16h-20v-16V199z"/>
            <g>
                <text transform="matrix(0.9923 0 0 1 370.2619 211.9759)" class="sittext_hot">B3</text>
            </g>
        </g>
    </g>
    <g id="seat_15">
        <g id="background_normal_15">
            <path class="Black" d="M348,202.1V198c0-1.1-0.9-2-2-2h-20c-1.1,0-2,0.9-2,2v4.5c-1.2,0.7-2,2-2,3.5v12v2c0,1.1,0.9,2,2,2h24  c1.1,0,2-0.9,2-2v-2v-13C350,203.7,349.2,202.6,348,202.1z M326,199c0-0.6,0.4-1,1-1h18c0.6,0,1,0.4,1,1v3v16h-20v-16V199z"/>
            <g>
                <text transform="matrix(0.9923 0 0 1 330.2783 211.9643)" class="sittext_normal">B4</text>
            </g>
        </g>
        <g id="background_pressed_15">
            <path class="Blue" d="M348,202.1V198c0-1.1-0.9-2-2-2h-20c-1.1,0-2,0.9-2,2v4.5c-1.2,0.7-2,2-2,3.5v12v2c0,1.1,0.9,2,2,2h24  c1.1,0,2-0.9,2-2v-2v-13C350,203.7,349.2,202.6,348,202.1z M326,199c0-0.6,0.4-1,1-1h18c0.6,0,1,0.4,1,1v3v16h-20v-16V199z"/>
            <g>
                <text transform="matrix(0.9923 0 0 1 330.2619 211.9582)" class="sittext_hot">B4</text>
            </g>
        </g>
    </g>
    <g id="seat_14">
        <g id="background_normal_14">
            <path class="Black" d="M308,202.2V198c0-1.1-0.9-2-2-2h-20c-1.1,0-2,0.9-2,2v4.5c-1.2,0.7-2,2-2,3.5v12v2c0,1.1,0.9,2,2,2h24  c1.1,0,2-0.9,2-2v-2v-13C310,203.7,309.2,202.6,308,202.2z M286,199c0-0.6,0.4-1,1-1h18c0.6,0,1,0.4,1,1v3v16h-20v-16V199z"/>
            <g>
                <text transform="matrix(0.9923 0 0 1 290.2783 211.9821)" class="sittext_normal">B5</text>
            </g>
        </g>
        <g id="background_pressed_14">
            <path class="Blue" d="M308,202.1V198c0-1.1-0.9-2-2-2h-20c-1.1,0-2,0.9-2,2v4.5c-1.2,0.7-2,2-2,3.5v12v2c0,1.1,0.9,2,2,2h24  c1.1,0,2-0.9,2-2v-2v-13C310,203.7,309.2,202.6,308,202.1z M286,199c0-0.6,0.4-1,1-1h18c0.6,0,1,0.4,1,1v3v16h-20v-16V199z"/>
            <g>
                <text transform="matrix(0.9923 0 0 1 290.2619 211.9759)" class="sittext_hot">B5</text>
            </g>
        </g>
    </g>
    <g id="seat_13">
        <g id="background_normal_13">
            <path class="Black" d="M268,202.1V198c0-1.1-0.9-2-2-2h-20c-1.1,0-2,0.9-2,2v4.5c-1.2,0.7-2,2-2,3.5v12v2c0,1.1,0.9,2,2,2h24  c1.1,0,2-0.9,2-2v-2v-13C270,203.7,269.2,202.6,268,202.1z M246,199c0-0.6,0.4-1,1-1h18c0.6,0,1,0.4,1,1v3v16h-20v-16V199z"/>
            <g>
                <text transform="matrix(0.9923 0 0 1 250.2783 211.9643)" class="sittext_normal">B6</text>
            </g>
        </g>
        <g id="background_pressed_13">
            <path class="Blue" d="M268,202.1V198c0-1.1-0.9-2-2-2h-20c-1.1,0-2,0.9-2,2v4.5c-1.2,0.7-2,2-2,3.5v12v2c0,1.1,0.9,2,2,2h24  c1.1,0,2-0.9,2-2v-2v-13C270,203.7,269.2,202.6,268,202.1z M246,199c0-0.6,0.4-1,1-1h18c0.6,0,1,0.4,1,1v3v16h-20v-16V199z"/>
            <g>
                <text transform="matrix(0.9923 0 0 1 250.2619 211.9582)" class="sittext_hot">B6</text>
            </g>
        </g>
    </g>
    <g id="seat_12">
        <g id="background_normal_12">
            <path class="Black" d="M228,202.1V198c0-1.1-0.9-2-2-2h-20c-1.1,0-2,0.9-2,2v4.5c-1.2,0.7-2,2-2,3.5v12v2c0,1.1,0.9,2,2,2h24  c1.1,0,2-0.9,2-2v-2v-13C230,203.7,229.2,202.6,228,202.1z M206,199c0-0.6,0.4-1,1-1h18c0.6,0,1,0.4,1,1v3v16h-20v-16V199z"/>
            <g>
                <text transform="matrix(0.9923 0 0 1 210.2783 211.9643)" class="sittext_normal">B7</text>
            </g>
        </g>
        <g id="background_pressed_12">
            <path class="Blue" d="M228,202.1V198c0-1.1-0.9-2-2-2h-20c-1.1,0-2,0.9-2,2v4.5c-1.2,0.7-2,2-2,3.5v12v2c0,1.1,0.9,2,2,2h24  c1.1,0,2-0.9,2-2v-2v-13C230,203.7,229.2,202.6,228,202.1z M206,199c0-0.6,0.4-1,1-1h18c0.6,0,1,0.4,1,1v3v16h-20v-16V199z"/>
            <g>
                <text transform="matrix(0.9923 0 0 1 210.2619 211.9582)" class="sittext_hot">B7</text>
            </g>
        </g>
    </g>
    <g id="seat_11">
        <g id="background_normal_11">
            <path class="Black" d="M188,202.2V198c0-1.1-0.9-2-2-2h-20c-1.1,0-2,0.9-2,2v4.5c-1.2,0.7-2,2-2,3.5v12v2c0,1.1,0.9,2,2,2h24  c1.1,0,2-0.9,2-2v-2v-13C190,203.7,189.2,202.6,188,202.2z M166,199c0-0.6,0.4-1,1-1h18c0.6,0,1,0.4,1,1v3v16h-20v-16V199z"/>
            <g>
                <text transform="matrix(0.9923 0 0 1 170.2783 211.9821)" class="sittext_normal">B8</text>
            </g>
        </g>
        <g id="background_pressed_11">
            <path class="Blue" d="M188,202.2V198c0-1.1-0.9-2-2-2h-20c-1.1,0-2,0.9-2,2v4.5c-1.2,0.7-2,2-2,3.5v12v2c0,1.1,0.9,2,2,2h24  c1.1,0,2-0.9,2-2v-2v-13C190,203.7,189.2,202.6,188,202.2z M166,199c0-0.6,0.4-1,1-1h18c0.6,0,1,0.4,1,1v3v16h-20v-16V199z"/>
            <g>
                <text transform="matrix(0.9923 0 0 1 170.2619 211.9759)" class="sittext_hot">B8</text>
            </g>
        </g>
    </g>
    <g id="seat_10">
        <g id="background_normal_10">
            <path class="Black" d="M148,202.2V198c0-1.1-0.9-2-2-2h-20c-1.1,0-2,0.9-2,2v4.5c-1.2,0.7-2,2-2,3.5v12v2c0,1.1,0.9,2,2,2h24  c1.1,0,2-0.9,2-2v-2v-13C150,203.7,149.2,202.6,148,202.2z M126,199c0-0.6,0.4-1,1-1h18c0.6,0,1,0.4,1,1v3v16h-20v-16V199z"/>
            <g>
                <text transform="matrix(0.9923 0 0 1 130.2783 211.9821)" class="sittext_normal">B9</text>
            </g>
        </g>
        <g id="background_pressed_10">
            <path class="Blue" d="M148,202.2V198c0-1.1-0.9-2-2-2h-20c-1.1,0-2,0.9-2,2v4.5c-1.2,0.7-2,2-2,3.5v12v2c0,1.1,0.9,2,2,2h24  c1.1,0,2-0.9,2-2v-2v-13C150,203.7,149.2,202.6,148,202.2z M126,199c0-0.6,0.4-1,1-1h18c0.6,0,1,0.4,1,1v3v16h-20v-16V199z"/>
            <g>
                <text transform="matrix(0.9923 0 0 1 130.2619 211.9759)" class="sittext_hot">B9</text>
            </g>
        </g>
    </g>
    <g id="seat_9">
        <g id="background_normal_9">
            <g>
                <text transform="matrix(0.9923 0 0 1 88 211.9822)" class="sittext_normal">B10</text>
            </g>
            <path class="Black" d="M108,202.2V198c0-1.1-0.9-2-2-2H86c-1.1,0-2,0.9-2,2v4.5c-1.2,0.7-2,2-2,3.5v12v2c0,1.1,0.9,2,2,2h24  c1.1,0,2-0.9,2-2v-2v-13C110,203.7,109.2,202.6,108,202.2z M86,199c0-0.6,0.4-1,1-1h18c0.6,0,1,0.4,1,1v3v16H86v-16V199z"/>
        </g>
        <g id="background_pressed_9">
            <path class="Blue" d="M108,202.2V198c0-1.1-0.9-2-2-2H86c-1.1,0-2,0.9-2,2v4.5c-1.2,0.7-2,2-2,3.5v12v2c0,1.1,0.9,2,2,2h24  c1.1,0,2-0.9,2-2v-2v-13C110,203.7,109.2,202.6,108,202.2z M86,199c0-0.6,0.4-1,1-1h18c0.6,0,1,0.4,1,1v3v16H86v-16V199z"/>
            <g>
                <text transform="matrix(0.9923 0 0 1 87.9836 211.9761)" class="sittext_hot">B10</text>
            </g>
        </g>
    </g>
    <g id="seat_8">
        <g id="background_normal_8">
            <path class="Black" d="M428,164.1V160c0-1.1-0.9-2-2-2h-20c-1.1,0-2,0.9-2,2v4.5c-1.2,0.7-2,2-2,3.5v12v2c0,1.1,0.9,2,2,2h24  c1.1,0,2-0.9,2-2v-2v-13C430,165.7,429.2,164.6,428,164.1z M406,161c0-0.6,0.4-1,1-1h18c0.6,0,1,0.4,1,1v3v16h-20v-16V161z"/>
            <g>
                <text transform="matrix(1.043 0 0 1 410.0005 173.9645)" class="sittext_normal">A1</text>
            </g>
        </g>
        <g id="background_pressed_8">
            <path class="Blue" d="M428,164.1V160c0-1.1-0.9-2-2-2h-20c-1.1,0-2,0.9-2,2v4.5c-1.2,0.7-2,2-2,3.5v12v2c0,1.1,0.9,2,2,2h24  c1.1,0,2-0.9,2-2v-2v-13C430,165.7,429.2,164.6,428,164.1z M406,161c0-0.6,0.4-1,1-1h18c0.6,0,1,0.4,1,1v3v16h-20v-16V161z"/>
            <g>
                <text transform="matrix(1.043 0 0 1 409.984 173.9584)" class="sittext_hot">A1</text>
            </g>
        </g>
    </g>
    <g id="seat_7">
        <g id="background_normal_7">
            <path class="Black" d="M388,164.2V160c0-1.1-0.9-2-2-2h-20c-1.1,0-2,0.9-2,2v4.5c-1.2,0.7-2,2-2,3.5v12v2c0,1.1,0.9,2,2,2h24  c1.1,0,2-0.9,2-2v-2v-13C390,165.7,389.2,164.6,388,164.2z M366,161c0-0.6,0.4-1,1-1h18c0.6,0,1,0.4,1,1v3v16h-20v-16V161z"/>
            <g>
                <text transform="matrix(1.043 0 0 1 370.0005 173.9822)" class="sittext_normal">A2</text>
            </g>
        </g>
        <g id="background_pressed_7">
            <path class="Blue" d="M388,164.1V160c0-1.1-0.9-2-2-2h-20c-1.1,0-2,0.9-2,2v4.5c-1.2,0.7-2,2-2,3.5v12v2c0,1.1,0.9,2,2,2h24  c1.1,0,2-0.9,2-2v-2v-13C390,165.7,389.2,164.6,388,164.1z M366,161c0-0.6,0.4-1,1-1h18c0.6,0,1,0.4,1,1v3v16h-20v-16V161z"/>
            <g>
                <text transform="matrix(1.043 0 0 1 369.984 173.9761)" class="sittext_hot">A2</text>
            </g>
        </g>
    </g>
    <g id="seat_6">
        <g id="background_normal_6">
            <path class="Black" d="M348,164.1V160c0-1.1-0.9-2-2-2h-20c-1.1,0-2,0.9-2,2v4.5c-1.2,0.7-2,2-2,3.5v12v2c0,1.1,0.9,2,2,2h24  c1.1,0,2-0.9,2-2v-2v-13C350,165.7,349.2,164.6,348,164.1z M326,161c0-0.6,0.4-1,1-1h18c0.6,0,1,0.4,1,1v3v16h-20v-16V161z"/>
            <g>
                <text transform="matrix(1.043 0 0 1 330.0005 173.9645)" class="sittext_normal">A3</text>
            </g>
        </g>
        <g id="background_pressed_6">
            <path class="Blue" d="M348,164.1V160c0-1.1-0.9-2-2-2h-20c-1.1,0-2,0.9-2,2v4.5c-1.2,0.7-2,2-2,3.5v12v2c0,1.1,0.9,2,2,2h24  c1.1,0,2-0.9,2-2v-2v-13C350,165.7,349.2,164.6,348,164.1z M326,161c0-0.6,0.4-1,1-1h18c0.6,0,1,0.4,1,1v3v16h-20v-16V161z"/>
            <g>
                <text transform="matrix(1.043 0 0 1 329.984 173.9584)" class="sittext_hot">A3</text>
            </g>
        </g>
    </g>
    <g id="seat_5">
        <g id="background_normal_5">
            <path class="Black" d="M308,164.2V160c0-1.1-0.9-2-2-2h-20c-1.1,0-2,0.9-2,2v4.5c-1.2,0.7-2,2-2,3.5v12v2c0,1.1,0.9,2,2,2h24  c1.1,0,2-0.9,2-2v-2v-13C310,165.7,309.2,164.6,308,164.2z M286,161c0-0.6,0.4-1,1-1h18c0.6,0,1,0.4,1,1v3v16h-20v-16V161z"/>
            <g>
                <text transform="matrix(1.043 0 0 1 290.0005 173.9822)" class="sittext_normal">A4</text>
            </g>
        </g>
        <g id="background_pressed_5">
            <path class="Blue" d="M308,164.1V160c0-1.1-0.9-2-2-2h-20c-1.1,0-2,0.9-2,2v4.5c-1.2,0.7-2,2-2,3.5v12v2c0,1.1,0.9,2,2,2h24  c1.1,0,2-0.9,2-2v-2v-13C310,165.7,309.2,164.6,308,164.1z M286,161c0-0.6,0.4-1,1-1h18c0.6,0,1,0.4,1,1v3v16h-20v-16V161z"/>
            <g>
                <text transform="matrix(1.043 0 0 1 289.984 173.9761)" class="sittext_hot">A4</text>
            </g>
        </g>
    </g>
    <g id="seat_4">
        <g id="background_normal_4">
            <path class="Black" d="M268,164.1V160c0-1.1-0.9-2-2-2h-20c-1.1,0-2,0.9-2,2v4.5c-1.2,0.7-2,2-2,3.5v12v2c0,1.1,0.9,2,2,2h24  c1.1,0,2-0.9,2-2v-2v-13C270,165.7,269.2,164.6,268,164.1z M246,161c0-0.6,0.4-1,1-1h18c0.6,0,1,0.4,1,1v3v16h-20v-16V161z"/>
            <g>
                <text transform="matrix(1.043 0 0 1 250.0005 173.9645)" class="sittext_normal">A5</text>
            </g>
        </g>
        <g id="background_pressed_4">
            <path class="Blue" d="M268,164.1V160c0-1.1-0.9-2-2-2h-20c-1.1,0-2,0.9-2,2v4.5c-1.2,0.7-2,2-2,3.5v12v2c0,1.1,0.9,2,2,2h24  c1.1,0,2-0.9,2-2v-2v-13C270,165.7,269.2,164.6,268,164.1z M246,161c0-0.6,0.4-1,1-1h18c0.6,0,1,0.4,1,1v3v16h-20v-16V161z"/>
            <g>
                <text transform="matrix(1.043 0 0 1 249.984 173.9584)" class="sittext_hot">A5</text>
            </g>
        </g>
    </g>
    <g id="seat_3">
        <g id="background_normal_3">
            <path class="Black" d="M228,164.2V160c0-1.1-0.9-2-2-2h-20c-1.1,0-2,0.9-2,2v4.5c-1.2,0.7-2,2-2,3.5v12v2c0,1.1,0.9,2,2,2h24  c1.1,0,2-0.9,2-2v-2v-13C230,165.7,229.2,164.6,228,164.2z M206,161c0-0.6,0.4-1,1-1h18c0.6,0,1,0.4,1,1v3v16h-20v-16V161z"/>
            <g>
                <text transform="matrix(1.043 0 0 1 210.0005 173.9822)" class="sittext_normal">A6</text>
            </g>
        </g>
        <g id="background_pressed_3">
            <path class="Blue" d="M228,164.2V160c0-1.1-0.9-2-2-2h-20c-1.1,0-2,0.9-2,2v4.5c-1.2,0.7-2,2-2,3.5v12v2c0,1.1,0.9,2,2,2h24  c1.1,0,2-0.9,2-2v-2v-13C230,165.7,229.2,164.6,228,164.2z M206,161c0-0.6,0.4-1,1-1h18c0.6,0,1,0.4,1,1v3v16h-20v-16V161z"/>
            <g>
                <text transform="matrix(1.043 0 0 1 209.984 173.9761)" class="sittext_hot">A6</text>
            </g>
        </g>
    </g>
    <g id="seat_2">
        <g id="background_normal_2">
            <path class="Black" d="M188,164.2V160c0-1.1-0.9-2-2-2h-20c-1.1,0-2,0.9-2,2v4.5c-1.2,0.7-2,2-2,3.5v12v2c0,1.1,0.9,2,2,2h24  c1.1,0,2-0.9,2-2v-2v-13C190,165.7,189.2,164.6,188,164.2z M166,161c0-0.6,0.4-1,1-1h18c0.6,0,1,0.4,1,1v3v16h-20v-16V161z"/>
            <g>
                <text transform="matrix(1.043 0 0 1 170.0005 173.9822)" class="sittext_normal">A7</text>
            </g>
        </g>
        <g id="background_pressed_2">
            <path class="Blue" d="M188,164.1V160c0-1.1-0.9-2-2-2h-20c-1.1,0-2,0.9-2,2v4.5c-1.2,0.7-2,2-2,3.5v12v2c0,1.1,0.9,2,2,2h24  c1.1,0,2-0.9,2-2v-2v-13C190,165.7,189.2,164.6,188,164.1z M166,161c0-0.6,0.4-1,1-1h18c0.6,0,1,0.4,1,1v3v16h-20v-16V161z"/>
            <g>
                <text transform="matrix(1.043 0 0 1 169.984 173.9761)" class="sittext_hot">A7</text>
            </g>
        </g>
    </g>
    <g id="seat_1">
        <g id="background_normal_1">
            <text transform="matrix(1.043 0 0 1 130.0005 173.9822)" class="sittext_normal">A8</text>
            <path class="Black" d="M148,164.2V160c0-1.1-0.9-2-2-2h-20c-1.1,0-2,0.9-2,2v4.5c-1.2,0.7-2,2-2,3.5v12v2c0,1.1,0.9,2,2,2h24  c1.1,0,2-0.9,2-2v-2v-13C150,165.7,149.2,164.6,148,164.2z M126,161c0-0.6,0.4-1,1-1h18c0.6,0,1,0.4,1,1v3v16h-20v-16V161z"/>
        </g>
        <g id="background_pressed_1">
            <path class="Blue" d="M148,164.1V160c0-1.1-0.9-2-2-2h-20c-1.1,0-2,0.9-2,2v4.5c-1.2,0.7-2,2-2,3.5v12v2c0,1.1,0.9,2,2,2h24  c1.1,0,2-0.9,2-2v-2v-13C150,165.7,149.2,164.6,148,164.1z M126,161c0-0.6,0.4-1,1-1h18c0.6,0,1,0.4,1,1v3v16h-20v-16V161z"/>
            <g>
                <text transform="matrix(1.043 0 0 1 129.984 173.9761)" class="sittext_hot">A8</text>
            </g>
        </g>
    </g>
    <path class="Blue" transform="matrix(1 0 0 1 8 0)" d="M448,54H88v0c0-2.2,1.8-4,4-4h352C446.2,50,448,51.8,448,54L448,54z"/>
</svg>